<?xml version="1.0" standalone="no"?>
<!DOCTYPE svg PUBLIC "-//W3C//DTD SVG 20010904//EN"
 "http://www.w3.org/TR/2001/REC-SVG-20010904/DTD/svg10.dtd">
<svg version="1.0" xmlns="http://www.w3.org/2000/svg"
 width="215.000000pt" height="25.000000pt" viewBox="0 0 215.000000 25.000000"
 preserveAspectRatio="xMidYMid meet">

<g transform="translate(0.000000,25.000000) scale(0.100000,-0.100000)"
fill="#000000" stroke="none">
<path d="M2098 243 c7 -3 16 -2 19 1 4 3 -2 6 -13 5 -11 0 -14 -3 -6 -6z"/>
<path d="M2065 229 c-4 -6 -5 -12 -2 -15 2 -3 7 2 10 11 7 17 1 20 -8 4z"/>
<path d="M2087 224 c-4 -4 -7 -16 -7 -26 0 -13 -4 -17 -12 -12 -9 5 -9 2 1 -9
7 -9 19 -17 25 -16 7 0 7 2 -1 5 -16 7 -5 34 14 34 8 0 13 5 11 12 -5 14 -22
21 -31 12z"/>
<path d="M2141 204 c0 -11 3 -14 6 -6 3 7 2 16 -1 19 -3 4 -6 -2 -5 -13z"/>
<path d="M110 199 c-121 -24 -145 -122 -42 -166 44 -19 259 -30 282 -14 26 17
2 25 -99 31 -109 7 -131 17 -131 61 0 42 40 59 137 59 76 0 115 11 99 27 -11
12 -193 13 -246 2z"/>
<path d="M413 200 c-20 -8 -23 -17 -23 -64 0 -48 3 -57 30 -79 38 -32 108 -47
218 -47 83 0 125 10 109 26 -4 5 -53 11 -109 14 -117 7 -128 15 -128 92 0 43
-3 50 -26 58 -30 12 -42 12 -71 0z"/>
<path d="M842 200 c-141 -29 -162 -129 -36 -172 82 -29 301 -22 271 8 -4 5
-52 11 -106 14 -109 7 -131 17 -131 62 0 39 46 58 142 58 72 0 110 11 94 27
-11 11 -183 13 -234 3z"/>
<path d="M1156 196 c-49 -19 -56 -29 -56 -93 0 -80 18 -88 195 -88 96 0 150 4
173 14 31 13 32 15 32 77 0 58 -2 65 -27 81 -36 24 -259 30 -317 9z m229 -86
l0 -55 -80 0 -80 0 -3 44 c-5 70 -3 72 85 69 l78 -3 0 -55z"/>
<path d="M1698 202 c-20 -8 -148 -148 -148 -162 0 -14 35 -30 65 -30 20 0 42
16 85 63 l59 62 33 -32 c32 -32 80 -44 92 -25 3 5 -21 34 -52 65 -57 56 -98
74 -134 59z"/>
<path d="M1883 200 c-13 -5 -23 -14 -23 -20 0 -14 128 -153 150 -164 29 -13
90 2 90 22 -1 9 -31 50 -68 89 -70 76 -104 92 -149 73z"/>
<path d="M2120 170 c-9 -6 -10 -10 -3 -10 6 0 15 5 18 10 8 12 4 12 -15 0z"/>
<path d="M170 120 c-27 -18 9 -30 90 -30 81 0 117 12 90 30 -8 5 -49 10 -90
10 -41 0 -82 -5 -90 -10z"/>
</g>
</svg>
