<svg xmlns:xlink="http://www.w3.org/1999/xlink" xmlns="http://www.w3.org/2000/svg" width="184" height="28" viewBox="0 0 184 28" fill="none">
<g clip-path="url(#clip0)">
<path d="M34.2505 11.3438L33.1543 15.0381L32.0581 11.3438H23.3968L22.2988 15.0381L21.2026 11.3438H16.2396L19.7788 23.2704H24.7747L27.8382 12.9412L30.9034 23.2704H35.6285L39.1677 11.3438H34.2505Z" fill="#00004B" fill-opacity="0.87"/>
<path d="M15.5058 18.9476H5.43528V15.6647H14.567L13.2988 11.3438H0.741333V23.2704H16.7721L15.5058 18.9476Z" fill="#00004B" fill-opacity="0.87"/>
<path d="M0.741333 8.08857H20.2455L18.9645 3.76758H0.741333V8.08857Z" fill="#00004B" fill-opacity="0.87"/>
<path d="M36.5032 3.72852L35.2204 8.10001H40.1431L41.4369 3.72852H36.5032Z" fill="#00004B" fill-opacity="0.87"/>
<path d="M25.6257 3.72852H29.7962L31.0791 8.10001H24.3428L25.6257 3.72852Z" fill="#00004B" fill-opacity="0.87"/>
<path d="M80.2237 15.5504C80.2237 17.0076 80.167 18.0196 80.0407 18.5901C80.0004 18.8444 79.8982 19.0843 79.7434 19.2876C79.5886 19.4909 79.3863 19.6511 79.155 19.7536C78.6792 19.9631 77.8399 20.0678 76.6369 20.0678C75.4529 20.0678 74.613 19.9631 74.1372 19.7536C73.9019 19.653 73.6949 19.4938 73.5351 19.2906C73.3753 19.0874 73.2677 18.8466 73.2222 18.5901C73.0916 18.0189 73.0264 17.0057 73.0264 15.5504V3.72852H69.0882V14.5291C69.0882 17.1217 69.2559 19.0191 69.5914 20.2212C69.9282 21.4221 70.6089 22.2788 71.6447 22.7652C72.6805 23.2515 74.3476 23.5134 76.6424 23.5134C78.9373 23.5134 80.6062 23.2646 81.642 22.7652C82.6778 22.2657 83.3567 21.4221 83.6843 20.2212C84.0118 19.0203 84.1692 17.1217 84.1692 14.5291V3.72852H80.2237V15.5504Z" fill="#00004B" fill-opacity="0.87"/>
<path d="M102.709 9.95398C102.709 8.57164 102.568 7.43808 102.279 6.56079C101.983 5.66942 101.367 4.92642 100.555 4.4826C99.6969 3.97755 98.4379 3.73438 96.7872 3.73438H87.7872V23.2723H91.7327V16.1979H96.0406L98.8478 23.2723H103.038L99.986 15.6648C101.803 14.9409 102.709 13.046 102.709 9.95398ZM98.5001 11.6992C98.361 12.0733 98.0444 12.3277 97.5595 12.4811C97.0745 12.6345 96.2785 12.7093 95.2079 12.7093H91.7309V7.23419H95.228C96.326 7.23419 97.1019 7.29966 97.5777 7.44369C98.0535 7.58772 98.3518 7.83464 98.4927 8.19191C98.6337 8.54919 98.6995 9.13654 98.6995 9.95585C98.6995 10.7752 98.6337 11.3288 98.4927 11.7011" fill="#00004B" fill-opacity="0.87"/>
<path d="M119.71 4.35826C118.59 3.78088 116.724 3.49219 114.113 3.49219C111.503 3.49219 109.641 3.78088 108.528 4.35826C107.992 4.62471 107.523 5.01475 107.159 5.49771C106.794 5.98067 106.545 6.54339 106.429 7.14164C106.14 8.42859 105.997 10.5486 106.001 13.5015C106.005 16.4545 106.147 18.5745 106.429 19.8614C106.545 20.459 106.795 21.021 107.159 21.5033C107.524 21.9855 107.992 22.375 108.528 22.6411C109.637 23.2135 111.499 23.4997 114.113 23.4997C116.728 23.4997 118.593 23.2135 119.71 22.6411C120.249 22.3779 120.721 21.989 121.087 21.5056C121.454 21.0222 121.704 20.4578 121.818 19.8577C122.107 18.5707 122.246 16.4458 122.246 13.4978C122.246 10.5498 122.107 8.42672 121.818 7.1379C121.702 6.53899 121.451 5.97594 121.085 5.49344C120.719 5.01093 120.248 4.62225 119.71 4.35826ZM118.044 18.1798C117.903 18.9804 117.578 19.4892 117.074 19.695C116.571 19.9007 115.581 20.0111 114.117 20.0111C112.653 20.0111 111.674 19.9063 111.171 19.695C110.668 19.4836 110.351 18.9804 110.201 18.1611C110.051 17.3418 109.974 15.7967 109.974 13.4997C109.974 11.2026 110.047 9.65754 110.197 8.83824C110.347 8.01894 110.673 7.51389 111.167 7.30438C111.661 7.09488 112.649 6.98826 114.113 6.98826C115.577 6.98826 116.567 7.09301 117.071 7.30438C117.574 7.51576 117.9 8.01894 118.041 8.81953C118.182 9.62013 118.246 11.1839 118.246 13.4959C118.246 15.8079 118.18 17.3755 118.041 18.1854" fill="#00004B" fill-opacity="0.87"/>
<path d="M146.596 3.72852L143.406 18.3338H143.267L139.49 3.72852H135.406L131.704 18.3338H131.563L128.177 3.72852H124.204L128.896 23.2702H133.848L137.318 10.2119H137.43L140.897 23.2702H145.851L150.542 3.72852H146.596Z" fill="#00004B" fill-opacity="0.87"/>
<path d="M155.997 3.72852L149.52 23.2721H153.493L154.855 19.0671H162.307L163.696 23.2721H167.782L161.313 3.72852H155.997ZM155.913 15.5504L158.497 7.54258H158.636L161.247 15.5504H155.913Z" fill="#00004B" fill-opacity="0.87"/>
<path d="M55.5572 19.7816V15.1483H64.257L63.1206 11.6597H55.5572H55.548V7.22833H55.5572H64.268H66.7293L65.5911 3.72852H51.6117V7.22833V11.6597V23.2702H67.3351L66.2078 19.7816H55.5572Z" fill="#00004B" fill-opacity="0.87"/>
<path d="M176.738 12.0749L175.741 15.4307H179.95V20.006C179.335 20.064 178.513 20.0921 177.477 20.0921C176.07 20.0921 175.052 19.9294 174.438 19.6057C173.823 19.2821 173.402 18.6817 173.197 17.8044C172.992 16.9271 172.889 15.4886 172.889 13.5021C172.889 11.308 173.019 9.7741 173.29 8.91551C173.561 8.05693 174.064 7.51446 174.82 7.31431C175.576 7.11416 176.928 7.00006 178.895 7.00006C180.093 7.03657 181.289 7.13521 182.477 7.29561L183.419 4.13063L182.837 4.05393C181.672 3.88184 180.672 3.74903 179.853 3.65363C179.017 3.55589 178.177 3.50655 177.336 3.50586C174.987 3.50586 173.213 3.80141 172.029 4.38315C170.845 4.96489 170.016 5.95442 169.586 7.34611C169.156 8.73781 168.918 10.7879 168.918 13.4946C168.918 16.3553 169.142 18.4753 169.59 19.8545C170.038 21.2338 170.84 22.1865 171.996 22.7127C173.153 23.2384 174.934 23.4946 177.349 23.4946C178.399 23.4865 179.448 23.4241 180.491 23.3076C181.677 23.1841 182.759 23.0326 183.747 22.8418V12.0749H176.738Z" fill="#00004B" fill-opacity="0.87"/>
</g>
<defs>
<clipPath id="clip0">
<rect width="183" height="20" fill="white" transform="translate(0.741333 3.5)"/>
</clipPath>
</defs>
</svg>