<?xml version="1.0" standalone="no"?>
<!DOCTYPE svg PUBLIC "-//W3C//DTD SVG 20010904//EN"
 "http://www.w3.org/TR/2001/REC-SVG-20010904/DTD/svg10.dtd">
<svg version="1.0" xmlns="http://www.w3.org/2000/svg"
 width="800.000000pt" height="196.000000pt" viewBox="0 0 800.000000 196.000000"
 preserveAspectRatio="xMidYMid meet">

<g transform="translate(0.000000,196.000000) scale(0.100000,-0.100000)"
fill="#000000" stroke="none">
<path d="M838 1890 c-288 -49 -548 -239 -676 -495 -170 -342 -112 -758 146
-1035 121 -131 253 -213 428 -266 81 -25 103 -28 249 -28 146 0 168 3 249 28
174 53 305 133 427 264 294 313 325 802 74 1157 -60 85 -178 193 -274 252 -87
54 -226 105 -331 122 -74 12 -222 13 -292 1z m612 -540 l0 -100 -465 0 -465 0
0 100 0 100 465 0 465 0 0 -100z m-710 -540 l0 -300 -105 0 -105 0 0 300 0
300 105 0 105 0 0 -300z m350 0 l0 -300 -105 0 -105 0 0 300 0 300 105 0 105
0 0 -300z m350 0 l0 -300 -105 0 -105 0 0 300 0 300 105 0 105 0 0 -300z"/>
<path d="M2765 1456 c-86 -20 -127 -39 -175 -83 -58 -51 -80 -102 -80 -186 0
-152 58 -207 282 -267 208 -56 248 -82 248 -162 0 -73 -80 -128 -188 -128 -86
0 -156 55 -168 131 l-7 39 -100 0 -100 0 7 -46 c23 -169 151 -256 376 -257
235 -2 380 110 380 293 0 78 -23 134 -71 174 -46 39 -101 61 -242 97 -182 46
-227 75 -227 150 0 71 65 119 160 119 88 0 150 -41 165 -110 l7 -30 93 0 92 0
-8 47 c-11 59 -50 125 -94 158 -81 62 -231 88 -350 61z"/>
<path d="M4570 1370 l0 -80 100 0 100 0 0 80 0 80 -100 0 -100 0 0 -80z"/>
<path d="M6490 981 l0 -471 95 0 95 0 0 190 0 190 100 0 c71 0 110 -5 130 -15
44 -23 70 -84 82 -189 5 -50 12 -110 14 -133 l5 -43 105 0 c57 0 104 2 104 4
0 2 -7 22 -15 45 -8 23 -21 93 -29 156 -22 168 -45 208 -140 244 l-48 18 44
16 c100 39 158 117 158 217 0 103 -49 169 -157 211 -53 21 -78 23 -300 27
l-243 4 0 -471z m431 303 c71 -41 86 -130 33 -193 -32 -39 -77 -51 -186 -51
l-88 0 0 136 0 137 104 -5 c78 -3 112 -9 137 -24z"/>
<path d="M5067 1169 c-128 -30 -194 -119 -173 -233 14 -76 81 -121 232 -156
106 -25 142 -43 150 -76 14 -55 -32 -94 -112 -94 -56 0 -79 12 -99 50 -15 30
-16 30 -102 30 l-85 0 6 -32 c9 -43 53 -98 102 -125 117 -65 337 -42 419 45
99 105 56 250 -90 306 -22 8 -78 25 -125 36 -105 26 -130 41 -130 79 0 38 30
62 82 68 48 5 108 -24 108 -52 0 -12 16 -15 85 -15 96 0 99 3 65 70 -45 89
-192 132 -333 99z"/>
<path d="M5700 1166 c-108 -29 -165 -93 -165 -186 0 -68 28 -116 82 -147 22
-12 90 -36 153 -53 63 -17 123 -38 132 -47 11 -9 18 -30 18 -50 0 -27 -6 -37
-32 -53 -49 -30 -118 -27 -157 6 -17 14 -31 32 -31 40 0 11 -19 14 -90 14
l-90 0 6 -27 c26 -109 121 -165 279 -165 97 0 178 23 230 64 62 48 84 163 44
228 -38 62 -89 90 -226 125 -117 30 -142 42 -149 71 -8 33 11 61 52 74 50 17
99 5 127 -31 23 -29 25 -30 104 -27 l81 3 -13 40 c-37 108 -200 163 -355 121z"/>
<path d="M7519 1164 c-67 -20 -139 -89 -175 -166 -26 -57 -29 -73 -29 -173 0
-100 2 -115 28 -167 54 -111 148 -162 292 -161 88 2 151 20 202 59 36 27 73
90 73 124 0 19 -6 20 -85 20 -71 0 -85 -3 -85 -16 0 -8 -13 -29 -29 -45 -25
-24 -38 -29 -78 -29 -78 0 -113 37 -127 133 l-7 47 220 0 221 0 -6 58 c-21
217 -132 334 -313 331 -31 0 -77 -7 -102 -15z m176 -124 c22 -21 45 -80 45
-119 0 -20 -4 -21 -120 -21 l-121 0 7 38 c10 56 34 101 63 118 34 19 97 12
126 -16z"/>
<path d="M3303 1147 c3 -7 51 -153 107 -325 l103 -312 114 0 c62 0 113 2 113
5 0 3 25 94 55 203 30 108 59 221 66 250 6 29 13 51 15 49 3 -3 14 -42 25 -88
18 -79 29 -117 95 -334 l25 -85 112 0 112 0 111 325 110 325 -101 0 -102 0
-57 -208 c-32 -114 -60 -227 -63 -250 -3 -23 -9 -42 -12 -42 -4 0 -12 28 -18
63 -6 34 -34 146 -63 250 l-52 187 -112 0 -111 0 -53 -192 c-28 -106 -58 -222
-65 -258 -13 -63 -14 -64 -21 -30 -3 19 -32 135 -64 257 l-57 223 -109 0 c-84
0 -107 -3 -103 -13z"/>
<path d="M4570 835 l0 -325 95 0 95 0 0 325 0 325 -95 0 -95 0 0 -325z"/>
</g>
</svg>
