<svg width="650" height="314" viewBox="0 0 650 314" fill="none" xmlns="http://www.w3.org/2000/svg">
<g clip-path="url(#clip0)">
<path d="M318.154 261.049C327.869 272.138 328.371 288.438 328.371 288.438C328.371 288.438 313.122 286.757 303.407 275.668C293.692 264.578 293.19 248.278 293.19 248.278C293.19 248.278 308.439 249.959 318.154 261.049Z" fill="#00B866"/>
<path d="M348.738 278.358C338.313 288.693 322.99 289.227 322.99 289.227C322.99 289.227 324.57 273.005 334.995 262.671C345.42 252.336 360.742 251.802 360.742 251.802C360.742 251.802 359.163 268.024 348.738 278.358Z" fill="#00B866"/>
<path d="M346.147 311.272H307.803C307.068 311.272 306.347 311.052 305.724 310.637C305.1 310.222 304.599 309.629 304.277 308.925L295.929 290.67C295.638 290.034 295.504 289.33 295.539 288.624C295.574 287.918 295.778 287.232 296.13 286.633C296.483 286.033 296.973 285.539 297.555 285.196C298.136 284.853 298.79 284.673 299.455 284.673H354.495C355.16 284.673 355.814 284.853 356.396 285.196C356.977 285.539 357.467 286.033 357.82 286.633C358.173 287.232 358.376 287.918 358.411 288.624C358.447 289.33 358.313 290.034 358.022 290.67L349.674 308.925C349.352 309.629 348.85 310.222 348.227 310.637C347.603 311.052 346.882 311.272 346.147 311.272Z" fill="#FF6584"/>
<path d="M518.345 88.6465C535.978 88.6465 550.271 73.4412 550.271 54.6845C550.271 35.9277 535.978 20.7224 518.345 20.7224C500.713 20.7224 486.419 35.9277 486.419 54.6845C486.419 73.4412 500.713 88.6465 518.345 88.6465Z" fill="#FFB8B8"/>
<path d="M494.516 71.6655C494.516 71.6655 500.531 119.902 491.277 125.316C482.023 130.73 546.339 131.222 546.339 131.222C546.339 131.222 531.995 89.3848 538.473 76.5875L494.516 71.6655Z" fill="#FFB8B8"/>
<path d="M593.302 131.466L587.953 157.375L576.644 212.192L576.305 215.194L572.402 249.947L569.805 273.035L568.064 288.543C557.48 294.33 549.808 298.325 549.808 298.325C549.808 298.325 549.148 294.806 548.084 290.303C540.656 292.672 526.91 296.602 515.262 297.388C519.504 302.417 521.453 307.142 518.809 310.629C510.829 321.14 477.885 299.119 466.362 290.908C466.094 292.874 465.993 294.862 466.059 296.847L457.241 289.633L458.113 273.035L459.585 244.95L461.435 209.73C460.852 208.222 460.363 206.674 459.972 205.098C457.271 194.882 453.993 174.482 451.479 157.375C449.456 143.608 447.937 131.974 447.615 129.499C447.572 129.175 447.55 129.009 447.55 129.009L496.363 106.065C499.832 114.623 516.03 117.195 516.03 117.195C529.45 116.212 539.97 108.683 539.97 108.683L593.302 131.466Z" fill="#D0CDE1"/>
<path d="M553.511 288.483C553.511 288.483 551.445 289.236 548.084 290.303C540.656 292.672 526.91 296.602 515.262 297.388C505.233 298.071 496.758 296.427 495.208 289.467C494.544 286.474 495.486 284.013 497.54 281.99C503.67 275.944 519.682 273.778 532.381 273.035C535.967 272.827 539.284 272.73 542.045 272.693C546.734 272.628 549.808 272.73 549.808 272.73L549.882 273.035L553.511 288.483Z" fill="#FFB8B8"/>
<path d="M491.785 22.5595L485.816 20.0173C485.816 20.0173 498.297 5.39962 515.663 6.67077L510.779 0.950757C510.779 0.950757 522.718 -4.1336 533.571 9.21291C539.277 16.2289 545.878 24.4758 549.993 33.7658H556.386L553.718 40.0154L563.057 46.2649L553.472 45.1424C554.043 48.5647 554.13 52.0586 553.732 55.5084C553.321 58.9594 551.665 62.1053 549.115 64.2825C549.115 64.2825 541.712 47.9815 541.712 45.4392V51.7948C541.712 51.7948 535.742 46.0748 535.742 42.2616L532.486 46.7104L530.858 39.7193L510.779 46.7104L514.035 40.9905L501.553 42.8971L506.438 35.906C506.438 35.906 492.328 44.1682 491.785 51.1593C491.243 58.1503 487.113 64.7747 487.113 64.7747C487.113 64.7747 476.048 32.0927 491.785 22.5595Z" fill="#2F2E41"/>
<path d="M628.005 250.58C624.753 254.33 616.695 259.978 606.926 266.093C603.292 268.365 599.424 270.707 595.477 273.035C586.06 278.591 576.201 284.096 568.064 288.543C557.48 294.33 549.808 298.325 549.808 298.325C549.808 298.325 549.148 294.806 548.084 290.303C546.66 284.276 544.516 276.485 542.28 273.035C542.202 272.915 542.123 272.804 542.045 272.693C541.394 271.783 540.738 271.252 540.092 271.252L572.402 249.947L586.364 240.738L576.305 215.194L563.688 183.151L571.303 157.375L578.958 131.466H593.302C593.302 131.466 598.052 142.495 604.126 157.874C605.033 160.174 605.971 162.571 606.926 165.047C619.421 197.376 634.999 242.521 628.005 250.58Z" fill="#D0CDE1"/>
<path d="M518.809 310.629C510.829 321.14 477.885 299.119 466.362 290.908C463.853 289.121 462.359 287.989 462.359 287.989L472.901 273.035L476.24 268.301C476.24 268.301 479.227 269.986 483.642 272.73C483.803 272.831 483.963 272.933 484.128 273.035C487.936 275.413 492.716 278.521 497.539 281.99C504.195 286.779 510.925 292.243 515.262 297.388C519.504 302.417 521.453 307.142 518.809 310.629Z" fill="#FFB8B8"/>
<path d="M483.642 272.73C482.464 272.725 481.287 272.827 480.125 273.035C470.144 274.859 467.201 284.47 466.363 290.908C466.094 292.874 465.993 294.862 466.059 296.847L457.241 289.633L454.028 287.005C446.296 284.137 439.406 279.043 433.432 273.035C428.249 267.73 423.6 261.865 419.56 255.535C415.536 249.297 411.949 242.752 408.828 235.953C407.957 234.056 407.489 231.979 407.456 229.868C407.424 227.757 407.828 225.664 408.641 223.738L419.56 197.851L435.52 160.017C435.637 159.117 435.766 158.236 435.906 157.376C439.071 138.071 447.55 129.499 447.55 129.499H454.028L458.361 157.376L463.745 192.009L459.972 205.098L451.254 235.325L459.585 244.95L483.642 272.73Z" fill="#D0CDE1"/>
<path d="M490.973 192.037L496.511 198.909C498.569 198.492 500.717 198.002 502.93 197.451L501.339 192.037L505.228 196.863C528.672 190.73 557.73 178.804 557.73 178.804C557.73 178.804 526.359 181.251 502.935 175.808C492.572 173.399 481.909 178.864 477.656 189.202C475.184 195.211 475.572 200.417 484.339 200.417C487.302 200.363 490.256 200.068 493.176 199.533L490.973 192.037Z" fill="#00B866"/>
<path d="M617.216 304.994V307.797C617.217 308.567 617.083 309.33 616.821 310.047C616.704 310.366 616.563 310.675 616.4 310.97C615.882 311.894 615.148 312.659 614.269 313.19C613.39 313.721 612.396 314 611.385 314H417.511C416.5 314 415.506 313.721 414.627 313.19C413.748 312.659 413.014 311.894 412.496 310.97C412.333 310.675 412.192 310.366 412.075 310.047C411.813 309.33 411.679 308.567 411.68 307.797V304.994C411.68 304.179 411.831 303.373 412.124 302.62C412.416 301.868 412.846 301.184 413.387 300.608C413.929 300.032 414.572 299.575 415.279 299.263C415.987 298.952 416.745 298.791 417.511 298.792H428.686V297.484C428.686 297.45 428.692 297.417 428.705 297.385C428.717 297.354 428.735 297.325 428.757 297.301C428.78 297.277 428.807 297.258 428.836 297.245C428.866 297.232 428.897 297.226 428.929 297.226H434.76C434.792 297.226 434.824 297.232 434.853 297.245C434.883 297.258 434.909 297.277 434.932 297.301C434.955 297.325 434.973 297.354 434.985 297.385C434.997 297.417 435.003 297.45 435.003 297.484V298.792H438.646V297.484C438.646 297.45 438.652 297.417 438.664 297.385C438.676 297.354 438.694 297.325 438.717 297.301C438.739 297.277 438.766 297.258 438.796 297.245C438.825 297.232 438.857 297.226 438.889 297.226H444.72C444.752 297.226 444.783 297.232 444.813 297.245C444.842 297.258 444.869 297.277 444.892 297.301C444.914 297.325 444.932 297.354 444.944 297.385C444.957 297.417 444.963 297.45 444.963 297.484V298.792H448.61V297.484C448.61 297.45 448.616 297.417 448.628 297.385C448.64 297.354 448.658 297.325 448.681 297.301C448.703 297.277 448.73 297.258 448.76 297.245C448.789 297.232 448.821 297.226 448.853 297.226H454.684C454.716 297.226 454.747 297.232 454.777 297.245C454.806 297.258 454.833 297.277 454.856 297.301C454.878 297.325 454.896 297.354 454.908 297.385C454.921 297.417 454.927 297.45 454.927 297.484V298.792H458.569V297.484C458.569 297.45 458.576 297.417 458.588 297.385C458.6 297.354 458.618 297.325 458.64 297.301C458.663 297.277 458.69 297.258 458.719 297.245C458.749 297.232 458.781 297.226 458.812 297.226H464.643C464.675 297.226 464.707 297.232 464.736 297.245C464.766 297.258 464.793 297.277 464.815 297.301C464.838 297.325 464.856 297.354 464.868 297.385C464.88 297.417 464.886 297.45 464.886 297.484V298.792H468.529V297.484C468.529 297.45 468.535 297.417 468.547 297.385C468.56 297.354 468.578 297.325 468.6 297.301C468.623 297.277 468.65 297.258 468.679 297.245C468.709 297.232 468.74 297.226 468.772 297.226H474.603C474.635 297.226 474.667 297.232 474.696 297.245C474.726 297.258 474.752 297.277 474.775 297.301C474.798 297.325 474.815 297.354 474.828 297.385C474.84 297.417 474.846 297.45 474.846 297.484V298.792H478.493V297.484C478.493 297.45 478.499 297.417 478.511 297.385C478.524 297.354 478.542 297.325 478.564 297.301C478.587 297.277 478.614 297.258 478.643 297.245C478.673 297.232 478.704 297.226 478.736 297.226H484.567C484.599 297.226 484.63 297.232 484.66 297.245C484.69 297.258 484.716 297.277 484.739 297.301C484.762 297.325 484.779 297.354 484.792 297.385C484.804 297.417 484.81 297.45 484.81 297.484V298.792H488.453V297.484C488.453 297.45 488.459 297.417 488.471 297.385C488.483 297.354 488.501 297.325 488.524 297.301C488.546 297.277 488.573 297.258 488.603 297.245C488.632 297.232 488.664 297.226 488.696 297.226H534.369C534.401 297.226 534.433 297.232 534.463 297.245C534.492 297.258 534.519 297.277 534.541 297.301C534.564 297.325 534.582 297.354 534.594 297.385C534.606 297.417 534.613 297.45 534.613 297.484V298.792H538.259V297.484C538.259 297.45 538.266 297.417 538.278 297.385C538.29 297.354 538.308 297.325 538.331 297.301C538.353 297.277 538.38 297.258 538.41 297.245C538.439 297.232 538.471 297.226 538.503 297.226H544.333C544.398 297.227 544.459 297.254 544.505 297.302C544.55 297.351 544.576 297.416 544.577 297.484V298.792H548.219V297.484C548.219 297.45 548.225 297.417 548.238 297.385C548.25 297.354 548.268 297.325 548.29 297.301C548.313 297.277 548.34 297.258 548.369 297.245C548.399 297.232 548.43 297.226 548.462 297.226H554.293C554.325 297.226 554.357 297.232 554.386 297.245C554.416 297.258 554.442 297.277 554.465 297.301C554.488 297.325 554.506 297.354 554.518 297.385C554.53 297.417 554.536 297.45 554.536 297.484V298.792H558.179V297.484C558.179 297.45 558.185 297.417 558.197 297.385C558.209 297.354 558.227 297.325 558.25 297.301C558.272 297.277 558.299 297.258 558.329 297.245C558.358 297.232 558.39 297.226 558.422 297.226H564.253C564.285 297.226 564.316 297.232 564.346 297.245C564.375 297.258 564.402 297.277 564.425 297.301C564.447 297.325 564.465 297.354 564.477 297.385C564.49 297.417 564.496 297.45 564.496 297.484V298.792H568.143V297.484C568.143 297.45 568.149 297.417 568.161 297.385C568.173 297.354 568.191 297.325 568.214 297.301C568.236 297.277 568.263 297.258 568.293 297.245C568.322 297.232 568.354 297.226 568.386 297.226H574.217C574.28 297.227 574.341 297.254 574.386 297.303C574.431 297.351 574.456 297.417 574.455 297.484V298.792H578.102V297.484C578.102 297.45 578.109 297.417 578.121 297.385C578.133 297.354 578.151 297.325 578.173 297.301C578.196 297.277 578.223 297.258 578.252 297.245C578.282 297.232 578.314 297.226 578.345 297.226H584.176C584.208 297.226 584.24 297.232 584.269 297.245C584.299 297.258 584.326 297.277 584.348 297.301C584.371 297.325 584.389 297.354 584.401 297.385C584.413 297.417 584.419 297.45 584.419 297.484V298.792H588.062V297.484C588.062 297.45 588.068 297.417 588.08 297.385C588.093 297.354 588.111 297.325 588.133 297.301C588.156 297.277 588.183 297.258 588.212 297.245C588.242 297.232 588.273 297.226 588.305 297.226H594.136C594.168 297.226 594.199 297.232 594.229 297.245C594.259 297.258 594.285 297.277 594.308 297.301C594.331 297.325 594.348 297.354 594.361 297.385C594.373 297.417 594.379 297.45 594.379 297.484V298.792H611.385C612.151 298.791 612.909 298.952 613.617 299.263C614.324 299.575 614.967 300.032 615.509 300.608C616.05 301.184 616.479 301.868 616.772 302.62C617.065 303.373 617.216 304.179 617.216 304.994Z" fill="#3F3D56"/>
<path d="M601.605 186.934H529.342V185.349H496.576V186.934H424.015C423.373 186.934 422.737 187.068 422.144 187.329C421.551 187.591 421.012 187.974 420.559 188.457C420.105 188.939 419.745 189.513 419.499 190.143C419.253 190.774 419.127 191.45 419.127 192.133V297.392C419.127 298.772 419.642 300.094 420.559 301.069C421.475 302.044 422.718 302.592 424.015 302.592H601.605C602.902 302.592 604.145 302.044 605.062 301.069C605.978 300.094 606.493 298.772 606.493 297.392V192.133C606.493 191.45 606.367 190.774 606.121 190.143C605.876 189.513 605.515 188.939 605.062 188.457C604.608 187.974 604.069 187.591 603.476 187.329C602.883 187.068 602.247 186.934 601.605 186.934Z" fill="#3F3D56"/>
<path d="M512.952 235.228C518.947 235.228 523.806 230.059 523.806 223.682C523.806 217.305 518.947 212.136 512.952 212.136C506.958 212.136 502.098 217.305 502.098 223.682C502.098 230.059 506.958 235.228 512.952 235.228Z" stroke="#D0CDE1" stroke-width="2" stroke-miterlimit="10"/>
<path d="M509.479 239.385C515.473 239.385 520.333 234.215 520.333 227.839C520.333 221.462 515.473 216.293 509.479 216.293C503.484 216.293 498.625 221.462 498.625 227.839C498.625 234.215 503.484 239.385 509.479 239.385Z" fill="#D0CDE1"/>
<path d="M190.782 135.93C199.509 135.93 206.583 128.404 206.583 119.121C206.583 109.837 199.509 102.312 190.782 102.312C182.055 102.312 174.98 109.837 174.98 119.121C174.98 128.404 182.055 135.93 190.782 135.93Z" fill="#2F2E41"/>
<path d="M195.184 102.774C197.919 102.775 200.606 103.53 202.985 104.966C205.363 106.402 207.35 108.471 208.751 110.968C210.153 113.466 210.922 116.308 210.982 119.217C211.042 122.125 210.391 125 209.094 127.561C210.464 125.738 211.462 123.631 212.024 121.374C212.586 119.118 212.7 116.762 212.359 114.456C212.018 112.151 211.229 109.946 210.043 107.982C208.856 106.019 207.298 104.34 205.468 103.052C203.638 101.764 201.576 100.896 199.413 100.504C197.25 100.111 195.034 100.201 192.906 100.77C190.777 101.338 188.784 102.372 187.052 103.806C185.32 105.239 183.888 107.041 182.847 109.095C184.324 107.123 186.201 105.53 188.337 104.435C190.473 103.341 192.813 102.773 195.184 102.774Z" fill="#2F2E41"/>
<path d="M161.254 119.085C186.89 119.085 207.671 96.9785 207.671 69.7085C207.671 42.4385 186.89 20.3318 161.254 20.3318C135.619 20.3318 114.837 42.4385 114.837 69.7085C114.837 96.9785 135.619 119.085 161.254 119.085Z" fill="#2F2E41"/>
<path d="M124.824 39.0726C132.822 29.5041 144.002 23.6156 156.004 22.6496C168.007 21.6837 179.892 25.7159 189.152 33.8953C188.773 33.5115 188.397 33.1246 188.003 32.7516C178.802 24.0509 166.729 19.5945 154.44 20.3628C142.151 21.1311 130.651 27.0612 122.472 36.8484C114.293 46.6357 110.104 59.4784 110.826 72.5514C111.548 85.6243 117.123 97.8566 126.323 106.557C126.718 106.93 127.123 107.282 127.526 107.638C118.805 98.8129 113.648 86.7289 113.144 73.9362C112.64 61.1435 116.828 48.6428 124.824 39.0726Z" fill="#2F2E41"/>
<path d="M160.861 118.667C177.372 118.667 190.757 104.428 190.757 86.8648C190.757 69.301 177.372 55.0628 160.861 55.0628C144.35 55.0628 130.965 69.301 130.965 86.8648C130.965 104.428 144.35 118.667 160.861 118.667Z" fill="#A0616A"/>
<path d="M139.619 96.9075C139.619 96.9075 143.553 135.405 137.259 139.589C130.965 143.774 173.448 149.632 173.448 149.632C173.448 149.632 167.155 107.787 182.889 96.9075L139.619 96.9075Z" fill="#A0616A"/>
<path d="M177.382 132.894C177.382 132.894 189.097 127.075 172.225 129.147C155.354 131.22 140.797 123.27 140.797 123.27C140.797 123.27 135.685 117.83 134.899 123.688C134.112 129.546 137.259 140.426 119.951 142.1C102.643 143.773 86.908 138.752 80.6141 151.306C74.3203 163.859 77.4672 218.257 77.4672 218.257C77.4672 218.257 89.2682 263.449 98.709 270.144C108.15 276.839 190.756 267.634 190.756 267.634L214.358 222.441V169.717C214.358 169.717 211.212 151.306 189.183 156.327C189.183 156.327 175.022 152.979 175.809 145.447C176.595 137.915 177.382 132.894 177.382 132.894Z" fill="#D0CDE1"/>
<path d="M101.831 302.126C102.317 299.872 102.643 298.598 102.643 298.598L102.391 296.764L99.7993 278.041L98.7095 270.143C108.148 265.959 110.51 246.71 110.51 246.71L110.866 246.483L112.477 245.458V245.453L118.26 241.763L118.377 241.689L120.713 243.343L125.458 246.71C131.679 251.648 138.801 255.151 146.367 256.995C153.933 258.839 161.778 258.984 169.399 257.42C172.947 256.773 176.416 255.707 179.741 254.242L191.186 250.183L191.542 250.058L191.893 250.113L198.605 251.194L198.727 251.217L199.283 251.305L197.728 262.736L195.475 279.348C201.427 282.701 206.72 289 211.348 296.764C212.373 298.482 213.365 300.269 214.326 302.126C215.577 304.528 216.771 307.026 217.908 309.585C218.047 309.89 218.182 310.199 218.316 310.508C218.755 311.511 219.189 312.522 219.61 313.538H99.7472C99.9035 312.517 100.06 311.543 100.212 310.605C100.22 310.574 100.225 310.541 100.229 310.508C100.286 310.194 100.338 309.89 100.385 309.585C100.915 306.537 101.427 303.992 101.831 302.126Z" fill="#2F2E41"/>
<path d="M97.1355 141.263C97.1355 141.263 105.79 158.001 102.643 178.923C99.4957 199.845 112.083 251.733 112.083 251.733L121.524 249.222C121.524 249.222 115.23 205.704 116.804 195.661C118.377 185.618 118.377 146.284 110.51 141.263C102.643 136.241 97.1355 141.263 97.1355 141.263Z" fill="#2F2E41"/>
<path d="M188.63 158.657L191.937 251.314L198.23 255.499C198.23 255.499 207.278 153.816 202.558 153.816H192.953C192.366 153.816 191.785 153.943 191.245 154.19C190.706 154.436 190.219 154.797 189.814 155.249C189.41 155.702 189.097 156.238 188.893 156.824C188.689 157.409 188.6 158.033 188.63 158.657Z" fill="#2F2E41"/>
<path d="M116.41 249.64C118.583 249.64 120.344 247.767 120.344 245.456C120.344 243.145 118.583 241.272 116.41 241.272C114.238 241.272 112.477 243.145 112.477 245.456C112.477 247.767 114.238 249.64 116.41 249.64Z" fill="#00B866"/>
<path d="M195.084 253.825C197.256 253.825 199.017 251.951 199.017 249.64C199.017 247.329 197.256 245.456 195.084 245.456C192.911 245.456 191.15 247.329 191.15 249.64C191.15 251.951 192.911 253.825 195.084 253.825Z" fill="#00B866"/>
<path d="M135.292 47.112V78.9142H142.215L151.026 68.8716L149.846 78.9142H180.451L178.562 68.8716L182.339 78.9142H187.216V47.112H135.292Z" fill="#2F2E41"/>
<path d="M130.572 84.7725C131.875 84.7725 132.932 82.7117 132.932 80.1696C132.932 77.6275 131.875 75.5667 130.572 75.5667C129.268 75.5667 128.211 77.6275 128.211 80.1696C128.211 82.7117 129.268 84.7725 130.572 84.7725Z" fill="#A0616A"/>
<path d="M191.15 84.7725C192.453 84.7725 193.51 82.7117 193.51 80.1696C193.51 77.6275 192.453 75.5667 191.15 75.5667C189.846 75.5667 188.79 77.6275 188.79 80.1696C188.79 82.7117 189.846 84.7725 191.15 84.7725Z" fill="#A0616A"/>
<path d="M207.278 249.222C207.278 249.222 171.482 242.108 169.121 254.662C166.761 267.215 208.851 261.775 208.851 261.775L207.278 249.222Z" fill="#A0616A"/>
<path d="M206.491 163.022C206.491 163.022 292.245 235.832 276.51 253.407C260.776 270.981 200.984 265.96 200.984 265.96L204.918 245.038L239.534 240.853L222.226 222.441L206.491 224.115V163.022Z" fill="#D0CDE1"/>
<path d="M79.8274 284.372L90.8416 293.577C90.8416 293.577 98.7089 319.521 110.51 311.989C122.311 304.457 99.4957 277.676 99.4957 277.676L86.1212 272.655L79.8274 284.372Z" fill="#A0616A"/>
<path d="M90.8416 149.632L79.8571 153.148C79.8571 153.148 3.51449 213.236 0.367561 229.973C-2.77936 246.711 15.3155 255.917 15.3155 255.917L83.761 290.23L90.8416 270.144L58.5857 252.57C58.5857 252.57 60.9459 247.548 51.5051 246.711C42.0643 245.874 40.4909 234.995 40.4909 234.995C40.4909 234.995 59.3724 204.03 69.5999 210.725C79.8274 217.42 82.9743 222.441 82.9743 222.441L90.8416 149.632Z" fill="#D0CDE1"/>
<path d="M247.514 304.994V307.797C247.515 308.567 247.381 309.33 247.118 310.047C247.002 310.366 246.861 310.675 246.697 310.97C246.18 311.894 245.446 312.659 244.567 313.19C243.688 313.721 242.694 314 241.683 314H47.8086C46.7976 314 45.8039 313.721 44.9248 313.19C44.0458 312.659 43.3115 311.894 42.7941 310.97C42.6304 310.675 42.4895 310.366 42.3729 310.047C42.1104 309.33 41.9764 308.567 41.9779 307.797V304.994C41.9777 304.179 42.1283 303.373 42.4213 302.62C42.7142 301.868 43.1437 301.184 43.6852 300.608C44.2267 300.032 44.8695 299.575 45.577 299.263C46.2846 298.952 47.0429 298.791 47.8086 298.792H58.9839V297.484C58.9839 297.45 58.9901 297.417 59.0023 297.385C59.0145 297.354 59.0324 297.325 59.055 297.301C59.0776 297.277 59.1044 297.258 59.1339 297.245C59.1635 297.232 59.1951 297.226 59.227 297.226H65.0578C65.0897 297.226 65.1214 297.232 65.1509 297.245C65.1804 297.258 65.2073 297.277 65.2298 297.301C65.2524 297.325 65.2703 297.354 65.2825 297.385C65.2947 297.417 65.301 297.45 65.3009 297.484V298.792H68.9435V297.484C68.9435 297.45 68.9497 297.417 68.9619 297.385C68.9741 297.354 68.992 297.325 69.0146 297.301C69.0372 297.277 69.064 297.258 69.0936 297.245C69.1231 297.232 69.1547 297.226 69.1867 297.226H75.0174C75.0494 297.226 75.081 297.232 75.1105 297.245C75.1401 297.258 75.1669 297.277 75.1895 297.301C75.212 297.325 75.23 297.354 75.2422 297.385C75.2544 297.417 75.2606 297.45 75.2606 297.484V298.792H78.9076V297.484C78.9075 297.45 78.9137 297.417 78.9259 297.385C78.9381 297.354 78.9561 297.325 78.9786 297.301C79.0012 297.277 79.0281 297.258 79.0576 297.245C79.0871 297.232 79.1187 297.226 79.1507 297.226H84.9814C85.0134 297.226 85.045 297.232 85.0746 297.245C85.1041 297.258 85.1309 297.277 85.1535 297.301C85.1761 297.325 85.194 297.354 85.2062 297.385C85.2184 297.417 85.2246 297.45 85.2246 297.484V298.792H88.8672V297.484C88.8671 297.45 88.8734 297.417 88.8856 297.385C88.8978 297.354 88.9157 297.325 88.9383 297.301C88.9609 297.277 88.9877 297.258 89.0172 297.245C89.0467 297.232 89.0784 297.226 89.1103 297.226H94.9411C94.973 297.226 95.0047 297.232 95.0342 297.245C95.0637 297.258 95.0905 297.277 95.1131 297.301C95.1357 297.325 95.1536 297.354 95.1658 297.385C95.178 297.417 95.1843 297.45 95.1842 297.484V298.792H98.8268V297.484C98.8268 297.45 98.833 297.417 98.8452 297.385C98.8574 297.354 98.8753 297.325 98.8979 297.301C98.9205 297.277 98.9473 297.258 98.9768 297.245C99.0064 297.232 99.038 297.226 99.0699 297.226H104.901C104.933 297.226 104.964 297.232 104.994 297.245C105.023 297.258 105.05 297.277 105.073 297.301C105.095 297.325 105.113 297.354 105.125 297.385C105.138 297.417 105.144 297.45 105.144 297.484V298.792H108.791V297.484C108.791 297.45 108.797 297.417 108.809 297.385C108.821 297.354 108.839 297.325 108.862 297.301C108.884 297.277 108.911 297.258 108.941 297.245C108.97 297.232 109.002 297.226 109.034 297.226H114.865C114.897 297.226 114.928 297.232 114.958 297.245C114.987 297.258 115.014 297.277 115.037 297.301C115.059 297.325 115.077 297.354 115.089 297.385C115.102 297.417 115.108 297.45 115.108 297.484V298.792H118.75V297.484C118.75 297.45 118.757 297.417 118.769 297.385C118.781 297.354 118.799 297.325 118.822 297.301C118.844 297.277 118.871 297.258 118.9 297.245C118.93 297.232 118.962 297.226 118.994 297.226H164.667C164.699 297.226 164.731 297.232 164.76 297.245C164.79 297.258 164.817 297.277 164.839 297.301C164.862 297.325 164.88 297.354 164.892 297.385C164.904 297.417 164.91 297.45 164.91 297.484V298.792H168.557V297.484C168.557 297.45 168.563 297.417 168.576 297.385C168.588 297.354 168.606 297.325 168.628 297.301C168.651 297.277 168.678 297.258 168.707 297.245C168.737 297.232 168.768 297.226 168.8 297.226H174.631C174.695 297.227 174.757 297.254 174.802 297.302C174.848 297.351 174.874 297.416 174.874 297.484V298.792H178.517V297.484C178.517 297.45 178.523 297.417 178.535 297.385C178.547 297.354 178.565 297.325 178.588 297.301C178.611 297.277 178.637 297.258 178.667 297.245C178.696 297.232 178.728 297.226 178.76 297.226H184.591C184.623 297.226 184.654 297.232 184.684 297.245C184.713 297.258 184.74 297.277 184.763 297.301C184.785 297.325 184.803 297.354 184.815 297.385C184.828 297.417 184.834 297.45 184.834 297.484V298.792H188.477V297.484C188.476 297.45 188.483 297.417 188.495 297.385C188.507 297.354 188.525 297.325 188.548 297.301C188.57 297.277 188.597 297.258 188.627 297.245C188.656 297.232 188.688 297.226 188.72 297.226H194.55C194.582 297.226 194.614 297.232 194.644 297.245C194.673 297.258 194.7 297.277 194.722 297.301C194.745 297.325 194.763 297.354 194.775 297.385C194.787 297.417 194.794 297.45 194.794 297.484V298.792H198.44V297.484C198.44 297.45 198.447 297.417 198.459 297.385C198.471 297.354 198.489 297.325 198.512 297.301C198.534 297.277 198.561 297.258 198.591 297.245C198.62 297.232 198.652 297.226 198.684 297.226H204.514C204.578 297.227 204.639 297.254 204.684 297.303C204.729 297.351 204.754 297.417 204.753 297.484V298.792H208.4V297.484C208.4 297.45 208.406 297.417 208.419 297.385C208.431 297.354 208.449 297.325 208.471 297.301C208.494 297.277 208.521 297.258 208.55 297.245C208.58 297.232 208.611 297.226 208.643 297.226H214.474C214.506 297.226 214.538 297.232 214.567 297.245C214.597 297.258 214.623 297.277 214.646 297.301C214.669 297.325 214.687 297.354 214.699 297.385C214.711 297.417 214.717 297.45 214.717 297.484V298.792H218.36V297.484C218.36 297.45 218.366 297.417 218.378 297.385C218.39 297.354 218.408 297.325 218.431 297.301C218.453 297.277 218.48 297.258 218.51 297.245C218.539 297.232 218.571 297.226 218.603 297.226H224.434C224.466 297.226 224.497 297.232 224.527 297.245C224.556 297.258 224.583 297.277 224.606 297.301C224.628 297.325 224.646 297.354 224.658 297.385C224.671 297.417 224.677 297.45 224.677 297.484V298.792H241.683C242.449 298.791 243.207 298.952 243.914 299.263C244.622 299.575 245.265 300.032 245.806 300.608C246.348 301.184 246.777 301.868 247.07 302.62C247.363 303.373 247.514 304.179 247.514 304.994Z" fill="#3F3D56"/>
<path d="M231.902 186.931H159.639V185.347H126.873V186.931H54.3119C53.0155 186.931 51.7722 187.479 50.8555 188.454C49.9388 189.43 49.4238 190.752 49.4238 192.131V297.39C49.4238 298.769 49.9388 300.092 50.8555 301.067C51.7722 302.042 53.0155 302.59 54.3119 302.59H231.902C233.199 302.59 234.442 302.042 235.359 301.067C236.275 300.092 236.79 298.769 236.79 297.39V192.131C236.79 190.752 236.275 189.43 235.359 188.454C234.442 187.479 233.199 186.931 231.902 186.931Z" fill="#3F3D56"/>
<path d="M143.249 235.226C149.244 235.226 154.103 230.057 154.103 223.68C154.103 217.303 149.244 212.134 143.249 212.134C137.255 212.134 132.395 217.303 132.395 223.68C132.395 230.057 137.255 235.226 143.249 235.226Z" stroke="#D0CDE1" stroke-width="2" stroke-miterlimit="10"/>
<path d="M139.776 239.383C145.77 239.383 150.63 234.213 150.63 227.837C150.63 221.46 145.77 216.291 139.776 216.291C133.781 216.291 128.922 221.46 128.922 227.837C128.922 234.213 133.781 239.383 139.776 239.383Z" fill="#D0CDE1"/>
<path d="M650 310.553H8.00488V311.991H650V310.553Z" fill="#3F3D56"/>
</g>
<defs>
<clipPath id="clip0">
<rect width="650" height="314" fill="white"/>
</clipPath>
</defs>
</svg>
