<svg width="563" height="317" viewBox="0 0 563 317" fill="none" xmlns="http://www.w3.org/2000/svg">
<path d="M42.3581 316.841L41.7656 315.746C49.71 311.452 59.5972 306.108 64.7614 297.337C69.8521 288.692 69.9663 276.951 65.0594 266.698C60.8836 257.972 53.2128 250.154 42.8766 244.089C40.8377 242.893 38.6975 241.759 36.6277 240.663C31.6247 238.013 26.4514 235.272 22.1857 231.384C16.3106 226.029 11.8653 217.042 15.1785 209.038C16.2681 206.483 18.0527 204.284 20.3295 202.692C22.6063 201.1 25.2841 200.178 28.0589 200.03L28.1292 201.274C25.5871 201.408 23.1338 202.253 21.0475 203.711C18.9612 205.169 17.3256 207.182 16.3262 209.522C13.2474 216.96 17.4716 225.402 23.0252 230.464C27.1743 234.246 32.2767 236.948 37.2111 239.562C39.2927 240.665 41.4452 241.805 43.5074 243.015C54.0587 249.206 61.9 257.21 66.1833 266.161C71.2666 276.783 71.1332 288.971 65.8351 297.969C60.4949 307.038 50.4386 312.474 42.3581 316.841Z" fill="#FF6584"/>
<path d="M35.9549 206.593C41.9755 206.593 46.856 204.224 46.856 201.301C46.856 198.378 41.9755 196.009 35.9549 196.009C29.9344 196.009 25.0538 198.378 25.0538 201.301C25.0538 204.224 29.9344 206.593 35.9549 206.593Z" fill="#FF6584"/>
<path d="M44.6758 241.46C50.6963 241.46 55.5769 239.09 55.5769 236.167C55.5769 233.245 50.6963 230.875 44.6758 230.875C38.6553 230.875 33.7747 233.245 33.7747 236.167C33.7747 239.09 38.6553 241.46 44.6758 241.46Z" fill="#FF6584"/>
<path d="M24.7424 247.063C30.7629 247.063 35.6435 244.694 35.6435 241.771C35.6435 238.848 30.7629 236.479 24.7424 236.479C18.7218 236.479 13.8412 238.848 13.8412 241.771C13.8412 244.694 18.7218 247.063 24.7424 247.063Z" fill="#FF6584"/>
<path d="M55.8884 276.326C61.9089 276.326 66.7895 273.956 66.7895 271.034C66.7895 268.111 61.9089 265.741 55.8884 265.741C49.8679 265.741 44.9873 268.111 44.9873 271.034C44.9873 273.956 49.8679 276.326 55.8884 276.326Z" fill="#FF6584"/>
<path d="M77.6906 276.326C83.7111 276.326 88.5917 273.956 88.5917 271.034C88.5917 268.111 83.7111 265.741 77.6906 265.741C71.6701 265.741 66.7895 268.111 66.7895 271.034C66.7895 273.956 71.6701 276.326 77.6906 276.326Z" fill="#FF6584"/>
<path d="M563 9.60657H212.423V175.879H563V9.60657Z" fill="#E6E6E6"/>
<path d="M552.976 23.8647H222.448V162.591H552.976V23.8647Z" fill="white"/>
<path d="M562.851 0H212.273V14.8862H562.851V0Z" fill="#00B866"/>
<path d="M223.341 9.64466C224.866 9.64466 226.102 8.40937 226.102 6.88556C226.102 5.36176 224.866 4.12646 223.341 4.12646C221.817 4.12646 220.581 5.36176 220.581 6.88556C220.581 8.40937 221.817 9.64466 223.341 9.64466Z" fill="white"/>
<path d="M233.819 9.64466C235.344 9.64466 236.579 8.40937 236.579 6.88556C236.579 5.36176 235.344 4.12646 233.819 4.12646C232.294 4.12646 231.058 5.36176 231.058 6.88556C231.058 8.40937 232.294 9.64466 233.819 9.64466Z" fill="white"/>
<path d="M244.297 9.64466C245.822 9.64466 247.058 8.40937 247.058 6.88556C247.058 5.36176 245.822 4.12646 244.297 4.12646C242.773 4.12646 241.537 5.36176 241.537 6.88556C241.537 8.40937 242.773 9.64466 244.297 9.64466Z" fill="white"/>
<path d="M370.284 56.7871C369.929 56.7871 369.589 56.9279 369.339 57.1786C369.088 57.4293 368.947 57.7693 368.947 58.1238C368.947 58.4783 369.088 58.8183 369.339 59.0689C369.589 59.3196 369.929 59.4605 370.284 59.4605H443.667C444.021 59.4605 444.361 59.3196 444.612 59.0689C444.863 58.8183 445.004 58.4783 445.004 58.1238C445.004 57.7693 444.863 57.4293 444.612 57.1786C444.361 56.9279 444.021 56.7871 443.667 56.7871H370.284Z" fill="#E6E6E6"/>
<path d="M370.284 64.8079C369.93 64.8087 369.591 64.9498 369.34 65.2004C369.09 65.451 368.95 65.7906 368.95 66.1446C368.95 66.4986 369.09 66.8382 369.34 67.0888C369.591 67.3393 369.93 67.4805 370.284 67.4813H407.747C408.102 67.4805 408.441 67.3393 408.691 67.0888C408.941 66.8382 409.082 66.4986 409.082 66.1446C409.082 65.7906 408.941 65.451 408.691 65.2004C408.441 64.9498 408.102 64.8087 407.747 64.8079H370.284Z" fill="#E6E6E6"/>
<path d="M368.438 103.63C368.083 103.63 367.743 103.771 367.492 104.021C367.241 104.272 367.1 104.612 367.1 104.967C367.1 105.321 367.241 105.661 367.492 105.912C367.743 106.162 368.083 106.303 368.438 106.303H506.03C506.385 106.303 506.725 106.162 506.976 105.912C507.227 105.661 507.367 105.321 507.367 104.967C507.367 104.612 507.227 104.272 506.976 104.021C506.725 103.771 506.385 103.63 506.03 103.63H368.438Z" fill="#E6E6E6"/>
<path d="M368.438 111.651C368.083 111.651 367.744 111.793 367.494 112.043C367.244 112.294 367.103 112.633 367.103 112.987C367.103 113.341 367.244 113.681 367.494 113.932C367.744 114.182 368.083 114.323 368.438 114.324H470.111C470.465 114.323 470.804 114.182 471.055 113.932C471.305 113.681 471.445 113.341 471.445 112.987C471.445 112.633 471.305 112.294 471.055 112.043C470.804 111.793 470.465 111.651 470.111 111.651H368.438Z" fill="#E6E6E6"/>
<path d="M368.438 119.49C368.083 119.491 367.744 119.632 367.494 119.883C367.244 120.133 367.103 120.473 367.103 120.827C367.103 121.181 367.244 121.52 367.494 121.771C367.744 122.021 368.083 122.163 368.438 122.163H506.03C506.384 122.163 506.724 122.021 506.974 121.771C507.224 121.52 507.365 121.181 507.365 120.827C507.365 120.473 507.224 120.133 506.974 119.883C506.724 119.632 506.384 119.491 506.03 119.49H368.438Z" fill="#E6E6E6"/>
<path d="M368.438 127.511C368.083 127.512 367.744 127.653 367.494 127.903C367.244 128.154 367.103 128.494 367.103 128.848C367.103 129.202 367.244 129.541 367.494 129.792C367.744 130.042 368.083 130.183 368.438 130.184H470.111C470.465 130.183 470.804 130.042 471.055 129.792C471.305 129.541 471.445 129.202 471.445 128.848C471.445 128.494 471.305 128.154 471.055 127.903C470.804 127.653 470.465 127.512 470.111 127.511H368.438Z" fill="#E6E6E6"/>
<path d="M296.503 109.055C302.935 109.055 308.148 103.844 308.148 97.4154C308.148 90.9872 302.935 85.7761 296.503 85.7761C290.072 85.7761 284.858 90.9872 284.858 97.4154C284.858 103.844 290.072 109.055 296.503 109.055Z" fill="#FFB6B6"/>
<path d="M292.816 88.1039C292.816 88.1039 298.25 89.5588 301.064 90.1408C303.878 90.7227 303.587 89.0738 303.587 89.0738C303.587 89.0738 307.275 89.5588 307.081 89.1708C306.887 88.7828 308.634 86.746 306.596 84.4181C304.558 82.0902 305.14 80.3443 305.14 80.3443H303.393L302.908 79.6654H300.191C300.191 79.6654 297.187 77.0324 291.849 77.8084C286.512 78.5843 280.2 80.6353 279.618 83.8361C279.539 84.2703 279.435 84.7526 279.314 85.2621C277.855 91.4206 280.956 97.1828 284.172 102.635C284.963 103.974 288.786 106.896 288.688 104.891C288.59 102.887 285.246 98.3853 287.575 98.0943C289.904 97.8033 293.883 91.8866 292.816 88.1039Z" fill="#2F2E41"/>
<path d="M289.897 135.043C287.649 134.863 285.42 134.497 283.233 133.949L283.355 131.627L284.375 113.172L284.384 113.03H304.897L308.116 130.023L308.55 132.316C307.701 132.646 306.842 132.958 305.964 133.231C305.954 133.231 305.954 133.241 305.945 133.241C304.727 133.618 303.491 133.949 302.244 134.222C300.587 134.579 298.91 134.838 297.222 134.996C295.918 135.125 294.607 135.188 293.296 135.185C292.163 135.185 291.021 135.137 289.897 135.043Z" fill="#00B866"/>
<path d="M276.709 131.76C275.86 131.392 275.038 130.995 274.227 130.58L273.877 130.401C273.641 130.278 273.396 130.146 273.16 130.014C272.839 129.835 272.527 129.656 272.225 129.476C271.933 129.306 271.631 129.127 271.338 128.948C271.319 128.938 271.31 128.929 271.291 128.929C270.271 128.278 269.271 127.608 268.308 126.882C268.147 126.759 267.987 126.636 267.826 126.514L267.657 123.796L267.902 123.645L284.375 113.172L284.601 113.03L284.62 113.021L286.942 113.03V121.673C288.254 123.57 289.142 127.542 289.689 132.741C289.765 133.486 289.831 134.251 289.897 135.043C287.649 134.863 285.42 134.497 283.233 133.949C282.997 133.901 282.77 133.845 282.534 133.779C281.158 133.419 279.803 132.984 278.475 132.477C278.069 132.326 277.672 132.165 277.276 132.005L277.238 131.986C277.068 131.911 276.879 131.835 276.709 131.76Z" fill="#2F2E41"/>
<path d="M273.16 130.014C272.839 129.835 272.527 129.656 272.225 129.476C271.933 129.306 271.631 129.127 271.338 128.948C271.319 128.938 271.31 128.929 271.291 128.929C270.271 128.278 269.271 127.608 268.308 126.882C268.147 126.759 267.987 126.636 267.826 126.514C267.751 126.448 267.675 126.391 267.59 126.325C266.986 125.863 266.401 125.381 265.834 124.872C265.806 124.853 265.787 124.825 265.759 124.806C266.331 124.366 266.972 124.025 267.657 123.796L268.327 123.994L273.103 125.428L273.132 127.363L273.16 130.014Z" fill="#2F2E41"/>
<path d="M313.384 130.042C313.1 130.193 312.817 130.344 312.534 130.486C312.468 130.524 312.412 130.552 312.355 130.58C311.977 130.769 311.609 130.958 311.232 131.137C311.222 131.146 311.203 131.146 311.203 131.156C311.184 131.165 311.156 131.175 311.137 131.184C310.288 131.59 309.429 131.967 308.55 132.316C307.701 132.647 306.842 132.958 305.964 133.231C305.954 133.231 305.954 133.241 305.945 133.241C304.727 133.618 303.491 133.949 302.244 134.222C302.23 133.447 302.332 132.674 302.547 131.929L302.556 131.797L303.368 118.663L302.282 113.03L305.398 112.568L322.531 121.786C322.531 121.786 320.643 123.673 312.893 127.693C312.208 128.048 313.214 129.231 313.384 130.042Z" fill="#2F2E41"/>
<path d="M297.015 132.731C295.788 132.845 294.542 132.901 293.296 132.901C292.087 132.901 290.888 132.854 289.689 132.741C289.765 133.486 289.831 134.251 289.897 135.043C291.021 135.137 292.163 135.185 293.296 135.185C294.607 135.188 295.918 135.125 297.223 134.996C298.91 134.838 300.587 134.579 302.244 134.222C302.23 133.447 302.332 132.674 302.547 131.929L302.556 131.797C300.734 132.241 298.882 132.553 297.015 132.731ZM332.688 79.7803C330.694 74.0529 327.473 68.8294 323.251 64.474C319.029 60.1186 313.907 56.7361 308.243 54.5623C302.578 52.3886 296.508 51.476 290.454 51.8881C284.401 52.3002 278.51 54.0271 273.193 56.9485C267.876 59.8698 263.261 63.9153 259.668 68.8027C256.076 73.6901 253.594 79.3019 252.394 85.2467C251.195 91.1915 251.307 97.3262 252.724 103.223C254.14 109.12 256.827 114.637 260.595 119.39C260.973 119.862 261.36 120.333 261.757 120.786C261.794 120.824 261.813 120.852 261.841 120.881C262.816 122.004 263.853 123.072 264.947 124.079C265.212 124.325 265.485 124.57 265.759 124.806C265.787 124.825 265.806 124.853 265.834 124.872C266.401 125.381 266.986 125.862 267.59 126.325C267.675 126.391 267.751 126.447 267.826 126.514C267.987 126.636 268.148 126.759 268.308 126.882C269.271 127.608 270.271 128.278 271.291 128.929C271.31 128.929 271.319 128.938 271.338 128.948C271.631 129.127 271.933 129.306 272.225 129.476C272.528 129.655 272.839 129.835 273.16 130.014C273.396 130.146 273.641 130.278 273.877 130.401L274.227 130.58C275.038 130.995 275.86 131.392 276.709 131.76C276.879 131.835 277.068 131.91 277.238 131.986L277.276 132.005C277.672 132.165 278.069 132.326 278.475 132.477C279.803 132.984 281.158 133.419 282.534 133.779C282.77 133.845 282.997 133.901 283.233 133.949C285.42 134.497 287.649 134.863 289.897 135.043C291.021 135.137 292.163 135.185 293.296 135.185C294.607 135.188 295.918 135.125 297.222 134.996C298.91 134.838 300.587 134.579 302.244 134.222C303.491 133.949 304.727 133.618 305.945 133.241C305.954 133.241 305.954 133.231 305.964 133.231C306.842 132.958 307.701 132.646 308.55 132.316C309.429 131.967 310.288 131.59 311.137 131.184C311.156 131.175 311.184 131.165 311.203 131.156C311.203 131.146 311.222 131.146 311.232 131.137C311.609 130.958 311.977 130.769 312.355 130.58C312.412 130.552 312.468 130.524 312.534 130.486C312.817 130.344 313.1 130.193 313.384 130.042C313.403 130.033 313.412 130.023 313.431 130.014C314.177 129.599 314.913 129.165 315.64 128.703C315.838 128.58 316.037 128.457 316.235 128.316C316.527 128.136 316.81 127.938 317.084 127.74C317.453 127.485 317.82 127.221 318.179 126.948C318.299 126.871 318.412 126.786 318.519 126.693C319.397 126.032 320.247 125.334 321.058 124.598C327.215 119.115 331.606 111.93 333.676 103.953C335.746 95.975 335.403 87.5628 332.688 79.7803L332.688 79.7803ZM320.351 122.164C319.329 123.125 318.257 124.032 317.141 124.881C316.896 125.07 316.64 125.259 316.386 125.428C316.14 125.617 315.895 125.796 315.64 125.966C315.423 126.117 315.206 126.268 314.979 126.41C314.96 126.429 314.932 126.438 314.913 126.457C314.752 126.57 314.583 126.674 314.422 126.778C313.922 127.089 313.403 127.4 312.893 127.693C312.77 127.759 312.657 127.834 312.534 127.9C312.468 127.938 312.402 127.976 312.327 128.014C312.044 128.174 311.76 128.316 311.477 128.467C311.439 128.495 311.392 128.504 311.354 128.533C311.34 128.535 311.327 128.542 311.317 128.552C311.118 128.655 310.92 128.75 310.722 128.844C310.552 128.929 310.392 129.014 310.221 129.089C309.532 129.42 308.824 129.731 308.116 130.023C307.371 130.325 306.616 130.599 305.851 130.854C305.662 130.92 305.464 130.995 305.265 131.052C304.368 131.335 303.472 131.59 302.556 131.797C300.734 132.241 298.882 132.553 297.015 132.731C295.788 132.845 294.542 132.901 293.296 132.901C292.087 132.901 290.888 132.854 289.689 132.741C287.551 132.545 285.432 132.173 283.355 131.627C283.28 131.609 283.195 131.59 283.119 131.571C281.416 131.127 279.746 130.559 278.125 129.872C278.041 129.835 277.946 129.806 277.871 129.769C277.776 129.731 277.691 129.703 277.616 129.665C277.521 129.627 277.436 129.589 277.351 129.552C276.643 129.24 275.954 128.901 275.265 128.552L274.944 128.382C274.33 128.061 273.726 127.731 273.132 127.363C272.924 127.249 272.707 127.117 272.499 126.985C272.263 126.844 272.027 126.693 271.8 126.542C271.744 126.504 271.688 126.466 271.631 126.429C271.102 126.07 270.564 125.711 270.054 125.325C269.696 125.06 269.346 124.806 268.997 124.532C268.77 124.362 268.544 124.183 268.327 123.994C268.185 123.89 268.044 123.768 267.902 123.645C267.713 123.485 267.524 123.324 267.336 123.155C267.043 122.919 266.769 122.654 266.505 122.409C265.442 121.43 264.436 120.39 263.493 119.295C263.173 118.937 262.87 118.578 262.578 118.201C262.51 118.127 262.447 118.048 262.389 117.965C257.636 111.969 254.733 104.719 254.032 97.1013C253.332 89.4835 254.864 81.8265 258.443 75.0645C262.023 68.3025 267.493 62.7278 274.188 59.0205C280.883 55.3132 288.513 53.6336 296.147 54.1866C303.78 54.7396 311.088 57.5013 317.178 62.1347C323.268 66.7681 327.878 73.073 330.444 80.2802C333.01 87.4874 333.422 95.2853 331.63 102.723C329.838 110.16 325.918 116.915 320.351 122.164L320.351 122.164Z" fill="#3F3D56"/>
<path d="M101.808 309.25L109.445 309.25L113.078 279.808L101.806 279.808L101.808 309.25Z" fill="#FFB6B6"/>
<path d="M99.8598 306.758L114.9 306.757H114.9C117.442 306.757 119.88 307.767 121.677 309.563C123.475 311.36 124.485 313.796 124.485 316.337V316.648L99.8603 316.649L99.8598 306.758Z" fill="#2F2E41"/>
<path d="M130.462 309.25L138.099 309.25L141.732 279.808L130.461 279.808L130.462 309.25Z" fill="#FFB6B6"/>
<path d="M128.514 306.758L143.554 306.757H143.555C146.096 306.757 148.534 307.767 150.332 309.563C152.129 311.36 153.139 313.796 153.139 316.337V316.648L128.515 316.649L128.514 306.758Z" fill="#2F2E41"/>
<path d="M78.6354 192.91C79.2604 192.241 79.7311 191.443 80.0143 190.573C80.2975 189.703 80.3863 188.781 80.2744 187.872C80.1626 186.964 79.8528 186.091 79.3669 185.315C78.881 184.539 78.2309 183.879 77.4622 183.382L82.7684 161.774L71.872 165.655L68.5037 185.579C67.7531 186.925 67.5226 188.499 67.8558 190.004C68.189 191.509 69.0628 192.839 70.3116 193.742C71.5605 194.646 73.0976 195.06 74.6317 194.907C76.1659 194.754 77.5904 194.043 78.6354 192.91Z" fill="#FFB6B6"/>
<path d="M159.703 191.042C159.078 190.373 158.607 189.576 158.324 188.705C158.041 187.835 157.952 186.913 158.064 186.004C158.176 185.096 158.485 184.223 158.971 183.447C159.457 182.671 160.107 182.011 160.876 181.514L155.57 159.906L166.466 163.787L169.835 183.711C170.585 185.057 170.816 186.632 170.483 188.136C170.149 189.641 169.275 190.971 168.027 191.875C166.778 192.778 165.241 193.193 163.707 193.039C162.172 192.886 160.748 192.175 159.703 191.042Z" fill="#FFB6B6"/>
<path d="M88.6833 177.764L99.2686 301.704L114.757 300.293L120.956 204.504L126.473 242.432L127.579 302.68L141.594 301.746L149.377 236.932L147.468 174.162L94.2597 168.776L88.6833 177.764Z" fill="#2F2E41"/>
<path d="M117.802 64.9809C126.673 64.9809 133.864 57.7931 133.864 48.9264C133.864 40.0597 126.673 32.8719 117.802 32.8719C108.931 32.8719 101.739 40.0597 101.739 48.9264C101.739 57.7931 108.931 64.9809 117.802 64.9809Z" fill="#FFB6B6"/>
<path d="M112.715 36.0828C112.715 36.0828 120.211 38.0896 124.093 38.8923C127.975 39.695 127.573 37.4206 127.573 37.4206C127.573 37.4206 132.66 38.0896 132.392 37.5544C132.124 37.0193 134.534 34.2097 131.723 30.9988C128.912 27.7879 129.715 25.3797 129.715 25.3797H127.305L126.636 24.4432H122.888C122.888 24.4432 118.745 20.8115 111.383 21.8818C104.021 22.9521 95.3143 25.7811 94.5112 30.1961C94.4022 30.7949 94.2588 31.4602 94.0923 32.1629C92.0792 40.6576 96.3565 48.6057 100.793 56.1254C101.883 57.9735 107.157 62.0034 107.022 59.2385C106.887 56.4736 102.275 50.2642 105.487 49.8629C108.7 49.4615 114.188 41.3005 112.715 36.0828Z" fill="#2F2E41"/>
<path d="M101.087 70.4651H129.375L149.377 176.045C149.377 176.045 131.939 177.535 121.972 181.271C112.006 185.006 95.4368 172.737 95.4368 172.737L101.087 70.4651Z" fill="#00B866"/>
<path d="M104.619 82.388V70.4651L101.416 70.4456L78.0146 85.3167L83.0925 166.793C83.0925 166.793 89.1024 193.975 98.218 193.693C107.334 193.411 114.362 96.5095 104.619 82.388Z" fill="#2F2E41"/>
<path d="M85.5314 87.5674L78.0147 85.3167C78.0147 85.3167 72.4501 86.9448 72.4501 92.5483C72.4501 98.1518 67.6556 177.764 67.6556 177.764L82.8865 179.109L86.1544 138.622L85.5314 87.5674Z" fill="#2F2E41"/>
<path d="M127.267 78.2282L125.769 70.4651L130.07 69.8229L145.643 76.0491C145.643 76.0491 159.659 178.469 153.43 181.582C147.201 184.695 142.995 182.283 142.995 182.283C142.995 182.283 122.506 106.744 126.132 96.533L127.267 78.2282Z" fill="#2F2E41"/>
<path d="M134.742 77.6056L137.4 76.4493C137.4 76.4493 145.201 72.5856 149.627 80.3878C154.053 88.19 169.626 175.356 169.626 175.356L156.812 177.764L147.232 146.394L134.742 77.6056Z" fill="#2F2E41"/>
<path d="M237.956 317H0.622921C0.457712 317 0.299269 316.934 0.182449 316.818C0.0656285 316.701 0 316.542 0 316.377C0 316.212 0.0656285 316.054 0.182449 315.937C0.299269 315.82 0.457712 315.755 0.622921 315.755H237.956C238.121 315.755 238.279 315.82 238.396 315.937C238.513 316.054 238.579 316.212 238.579 316.377C238.579 316.542 238.513 316.701 238.396 316.818C238.279 316.934 238.121 317 237.956 317Z" fill="#FF6584"/>
</svg>
