<svg width="905" height="393" viewBox="0 0 905 393" fill="none" xmlns="http://www.w3.org/2000/svg">
<g clip-path="url(#clip0)">
<path d="M816.337 162.124H285.368C283.114 162.124 280.952 163.021 279.357 164.617C277.763 166.212 276.868 168.377 276.868 170.634C276.868 172.891 277.763 175.055 279.357 176.651C280.952 178.247 283.114 179.143 285.368 179.143H300.408V382.717C300.408 384.974 301.304 387.139 302.898 388.734C304.492 390.33 306.654 391.227 308.909 391.227C311.163 391.227 313.326 390.33 314.92 388.734C316.514 387.139 317.41 384.974 317.41 382.717L317.539 179.143H743.695L782.988 382.717C782.988 384.974 783.883 387.139 785.477 388.734C787.072 390.33 789.234 391.227 791.488 391.227C793.743 391.227 795.905 390.33 797.499 388.734C799.093 387.139 799.989 384.974 799.989 382.717L802.462 179.143H816.337C818.591 179.143 820.753 178.247 822.347 176.651C823.942 175.055 824.837 172.891 824.837 170.634C824.837 168.377 823.942 166.212 822.347 164.617C820.753 163.021 818.591 162.124 816.337 162.124Z" fill="#CCCCCC"/>
<path d="M377.405 124.207V160.242H287.216C284.852 160.325 282.495 159.94 280.28 159.111C278.065 158.281 276.034 157.023 274.305 155.408C272.575 153.793 271.181 151.853 270.2 149.699C269.22 147.544 268.673 145.218 268.59 142.851C268.508 140.485 268.892 138.126 269.721 135.909C270.549 133.691 271.806 131.659 273.419 129.927C275.033 128.196 276.971 126.8 279.123 125.818C281.275 124.837 283.6 124.289 285.963 124.207C286.381 124.192 286.798 124.192 287.216 124.207L377.405 124.207Z" fill="#F2F2F2"/>
<path d="M379.62 159.965C379.62 160.333 379.474 160.685 379.214 160.945C378.955 161.205 378.603 161.351 378.235 161.351H285.609C280.581 161.348 275.76 159.346 272.205 155.785C268.651 152.224 266.654 147.397 266.654 142.363C266.654 137.33 268.651 132.502 272.205 128.941C275.76 125.381 280.581 123.379 285.609 123.375H378.235C378.418 123.375 378.598 123.41 378.766 123.48C378.935 123.549 379.088 123.651 379.217 123.78C379.346 123.909 379.448 124.062 379.518 124.23C379.588 124.398 379.624 124.579 379.624 124.761C379.624 124.944 379.588 125.124 379.518 125.292C379.448 125.461 379.346 125.614 379.217 125.743C379.088 125.871 378.935 125.973 378.766 126.043C378.598 126.112 378.418 126.148 378.235 126.147H285.609C281.317 126.154 277.203 127.865 274.171 130.905C271.138 133.946 269.435 138.067 269.435 142.363C269.435 146.66 271.138 150.781 274.171 153.821C277.203 156.861 281.317 158.573 285.609 158.579H378.235C378.603 158.579 378.955 158.725 379.214 158.985C379.474 159.245 379.62 159.598 379.62 159.965Z" fill="#FF6584"/>
<path d="M377.405 132.523H280.486C280.413 132.523 280.343 132.494 280.291 132.443C280.238 132.392 280.209 132.321 280.208 132.248C280.207 132.175 280.236 132.104 280.287 132.052C280.338 131.999 280.408 131.969 280.481 131.968H377.405C377.478 131.969 377.547 131.999 377.599 132.051C377.65 132.102 377.679 132.173 377.679 132.246C377.679 132.319 377.65 132.389 377.599 132.441C377.547 132.493 377.478 132.522 377.405 132.523Z" fill="#CCCCCC"/>
<path d="M377.405 139.175H280.486C280.413 139.176 280.343 139.147 280.291 139.096C280.238 139.044 280.209 138.974 280.208 138.901C280.207 138.828 280.236 138.757 280.287 138.704C280.338 138.652 280.408 138.622 280.481 138.621H377.405C377.478 138.622 377.547 138.651 377.599 138.703C377.65 138.755 377.679 138.825 377.679 138.898C377.679 138.971 377.65 139.041 377.599 139.093C377.547 139.145 377.478 139.175 377.405 139.175Z" fill="#CCCCCC"/>
<path d="M377.405 145.828H280.486C280.413 145.829 280.343 145.8 280.291 145.748C280.238 145.697 280.209 145.627 280.208 145.554C280.207 145.48 280.236 145.41 280.287 145.357C280.338 145.305 280.408 145.275 280.481 145.274H377.405C377.478 145.275 377.547 145.304 377.599 145.356C377.65 145.408 377.679 145.478 377.679 145.551C377.679 145.624 377.65 145.694 377.599 145.746C377.547 145.798 377.478 145.828 377.405 145.828Z" fill="#CCCCCC"/>
<path d="M377.405 152.481H280.486C280.413 152.481 280.343 152.453 280.291 152.401C280.238 152.35 280.209 152.28 280.208 152.206C280.207 152.133 280.236 152.062 280.287 152.01C280.338 151.957 280.408 151.927 280.481 151.926H377.405C377.478 151.927 377.547 151.957 377.599 152.009C377.65 152.06 377.679 152.131 377.679 152.204C377.679 152.277 377.65 152.347 377.599 152.399C377.547 152.451 377.478 152.48 377.405 152.481Z" fill="#CCCCCC"/>
<path d="M360.403 86.2413V122.277H270.214C265.441 122.443 260.796 120.704 257.303 117.443C253.811 114.181 251.755 109.664 251.589 104.886C251.423 100.107 253.16 95.4583 256.418 91.9618C259.676 88.4653 264.188 86.4075 268.962 86.2413C269.379 86.2268 269.797 86.2268 270.214 86.2413H360.403Z" fill="#F2F2F2"/>
<path d="M362.619 122C362.618 122.367 362.473 122.72 362.213 122.979C361.953 123.239 361.601 123.385 361.234 123.386H268.608C263.577 123.386 258.753 121.385 255.195 117.824C251.638 114.263 249.64 109.434 249.64 104.398C249.64 99.3617 251.638 94.5321 255.195 90.9712C258.753 87.4102 263.577 85.4097 268.608 85.4097H361.234C361.416 85.4097 361.596 85.4456 361.764 85.5152C361.932 85.5849 362.085 85.687 362.213 85.8157C362.342 85.9444 362.444 86.0972 362.513 86.2653C362.583 86.4335 362.619 86.6137 362.619 86.7957C362.619 86.9777 362.583 87.1579 362.513 87.3261C362.444 87.4942 362.342 87.647 362.213 87.7757C362.085 87.9044 361.932 88.0065 361.764 88.0762C361.596 88.1458 361.416 88.1817 361.234 88.1817H268.608C264.312 88.1817 260.191 89.8902 257.153 92.9312C254.115 95.9723 252.409 100.097 252.409 104.398C252.409 108.698 254.115 112.823 257.153 115.864C260.191 118.905 264.312 120.614 268.608 120.614H361.234C361.601 120.614 361.953 120.76 362.213 121.02C362.473 121.28 362.618 121.632 362.619 122Z" fill="#3F3D56"/>
<path d="M360.403 94.5572H263.485C263.412 94.5576 263.341 94.5289 263.289 94.4774C263.237 94.4259 263.207 94.3559 263.207 94.2825C263.206 94.2092 263.234 94.1386 263.285 94.0862C263.337 94.0337 263.407 94.0038 263.48 94.0028H360.403C360.476 94.0035 360.546 94.0331 360.597 94.085C360.649 94.1369 360.677 94.2069 360.677 94.28C360.677 94.353 360.649 94.4231 360.597 94.475C360.546 94.5269 360.476 94.5564 360.403 94.5572Z" fill="#CCCCCC"/>
<path d="M360.403 101.21H263.485C263.412 101.21 263.341 101.182 263.289 101.13C263.237 101.079 263.207 101.009 263.207 100.935C263.206 100.862 263.234 100.791 263.285 100.739C263.337 100.686 263.407 100.656 263.48 100.656H360.403C360.476 100.656 360.546 100.686 360.597 100.738C360.649 100.79 360.677 100.86 360.677 100.933C360.677 101.006 360.649 101.076 360.597 101.128C360.546 101.18 360.476 101.209 360.403 101.21Z" fill="#CCCCCC"/>
<path d="M360.403 107.863H263.485C263.412 107.863 263.341 107.834 263.289 107.783C263.237 107.731 263.207 107.661 263.207 107.588C263.206 107.515 263.234 107.444 263.285 107.392C263.337 107.339 263.407 107.309 263.48 107.308H360.403C360.476 107.309 360.546 107.338 360.597 107.39C360.649 107.442 360.677 107.512 360.677 107.585C360.677 107.658 360.649 107.729 360.597 107.78C360.546 107.832 360.476 107.862 360.403 107.863Z" fill="#CCCCCC"/>
<path d="M360.403 114.515H263.485C263.412 114.516 263.341 114.487 263.289 114.436C263.237 114.384 263.207 114.314 263.207 114.241C263.206 114.167 263.234 114.097 263.285 114.044C263.337 113.992 263.407 113.962 263.48 113.961H360.403C360.476 113.962 360.546 113.991 360.597 114.043C360.649 114.095 360.677 114.165 360.677 114.238C360.677 114.311 360.649 114.381 360.597 114.433C360.546 114.485 360.476 114.515 360.403 114.515Z" fill="#CCCCCC"/>
<path d="M465.321 289.638V258.219C465.321 256.83 464.769 255.498 463.788 254.516C462.807 253.534 461.477 252.982 460.089 252.982H341.079C339.692 252.982 338.361 253.534 337.38 254.516C336.399 255.498 335.848 256.83 335.848 258.219V289.638H465.321Z" fill="#CCCCCC"/>
<path d="M465.321 301.421H335.848V342.005H465.321V301.421Z" fill="#CCCCCC"/>
<path d="M335.848 353.787V385.207C335.848 386.596 336.399 387.928 337.38 388.91C338.361 389.892 339.692 390.444 341.079 390.444H460.089C461.477 390.444 462.807 389.892 463.788 388.91C464.769 387.928 465.321 386.596 465.321 385.207V353.787H335.848Z" fill="#CCCCCC"/>
<path d="M399.93 276.547C402.097 276.547 403.854 274.788 403.854 272.619C403.854 270.45 402.097 268.692 399.93 268.692C397.764 268.692 396.007 270.45 396.007 272.619C396.007 274.788 397.764 276.547 399.93 276.547Z" fill="white"/>
<path d="M399.93 328.913C402.097 328.913 403.854 327.155 403.854 324.986C403.854 322.817 402.097 321.058 399.93 321.058C397.764 321.058 396.007 322.817 396.007 324.986C396.007 327.155 397.764 328.913 399.93 328.913Z" fill="white"/>
<path d="M400.141 380.171C402.308 380.171 404.064 378.412 404.064 376.243C404.064 374.074 402.308 372.316 400.141 372.316C397.974 372.316 396.217 374.074 396.217 376.243C396.217 378.412 397.974 380.171 400.141 380.171Z" fill="white"/>
<path d="M450.642 217.157V253.193H360.453C355.681 253.356 351.04 251.615 347.55 248.354C344.06 245.093 342.006 240.578 341.84 235.802C341.673 231.025 343.409 226.378 346.664 222.882C349.919 219.386 354.428 217.327 359.199 217.157C359.617 217.143 360.035 217.143 360.453 217.157H450.642Z" fill="#F2F2F2"/>
<path d="M452.857 252.915C452.857 253.283 452.711 253.635 452.451 253.895C452.192 254.155 451.84 254.301 451.472 254.301H358.846C353.817 254.303 348.993 252.304 345.435 248.746C341.877 245.187 339.876 240.36 339.873 235.325C339.87 230.29 341.865 225.46 345.419 221.897C348.972 218.334 353.794 216.33 358.824 216.325H451.472C451.655 216.325 451.835 216.36 452.003 216.43C452.172 216.499 452.325 216.601 452.454 216.73C452.583 216.859 452.685 217.012 452.755 217.18C452.825 217.349 452.861 217.529 452.861 217.711C452.861 217.894 452.825 218.074 452.755 218.243C452.685 218.411 452.583 218.564 452.454 218.693C452.325 218.821 452.172 218.924 452.003 218.993C451.835 219.062 451.655 219.098 451.472 219.097H358.846C354.554 219.103 350.439 220.814 347.405 223.854C344.372 226.895 342.668 231.016 342.668 235.313C342.668 239.61 344.372 243.732 347.405 246.772C350.439 249.813 354.554 251.524 358.846 251.529H451.472C451.84 251.53 452.192 251.676 452.451 251.936C452.711 252.195 452.857 252.548 452.857 252.915Z" fill="#3F3D56"/>
<path d="M450.642 225.473H353.723C353.65 225.473 353.58 225.445 353.528 225.393C353.475 225.342 353.446 225.272 353.445 225.198C353.444 225.125 353.473 225.054 353.524 225.002C353.575 224.949 353.645 224.92 353.718 224.919H450.642C450.715 224.919 450.784 224.949 450.836 225.001C450.887 225.053 450.916 225.123 450.916 225.196C450.916 225.269 450.887 225.339 450.836 225.391C450.784 225.443 450.715 225.472 450.642 225.473H450.642Z" fill="#CCCCCC"/>
<path d="M450.642 232.126H353.723C353.65 232.126 353.58 232.097 353.528 232.046C353.475 231.995 353.446 231.924 353.445 231.851C353.444 231.778 353.473 231.707 353.524 231.655C353.575 231.602 353.645 231.572 353.718 231.571H450.642C450.715 231.572 450.784 231.602 450.836 231.654C450.887 231.705 450.916 231.776 450.916 231.849C450.916 231.922 450.887 231.992 450.836 232.044C450.784 232.095 450.715 232.125 450.642 232.126H450.642Z" fill="#CCCCCC"/>
<path d="M450.642 238.778H353.723C353.65 238.779 353.58 238.75 353.528 238.699C353.475 238.647 353.446 238.577 353.445 238.504C353.444 238.43 353.473 238.36 353.524 238.307C353.575 238.255 353.645 238.225 353.718 238.224H450.642C450.715 238.225 450.784 238.254 450.836 238.306C450.887 238.358 450.916 238.428 450.916 238.501C450.916 238.574 450.887 238.644 450.836 238.696C450.784 238.748 450.715 238.778 450.642 238.778H450.642Z" fill="#CCCCCC"/>
<path d="M450.642 245.431H353.723C353.65 245.431 353.58 245.403 353.528 245.351C353.475 245.3 353.446 245.23 353.445 245.156C353.444 245.083 353.473 245.012 353.524 244.96C353.575 244.908 353.645 244.878 353.718 244.877H450.642C450.715 244.877 450.784 244.907 450.836 244.959C450.887 245.011 450.916 245.081 450.916 245.154C450.916 245.227 450.887 245.297 450.836 245.349C450.784 245.401 450.715 245.43 450.642 245.431H450.642Z" fill="#CCCCCC"/>
<path d="M344.719 74.2199H303.628C303.238 74.2196 302.854 74.3092 302.504 74.4818L292.133 79.6791C291.791 79.8243 291.5 80.0668 291.296 80.3765C291.091 80.6861 290.982 81.0491 290.982 81.4203C290.982 81.7915 291.091 82.1545 291.296 82.4641C291.5 82.7737 291.791 83.0162 292.133 83.1614L302.504 88.3587C302.854 88.5313 303.238 88.6209 303.628 88.6206H344.719C345.286 88.6534 345.842 88.4616 346.268 88.0867C346.694 87.7117 346.955 87.1839 346.995 86.6176V76.2229C346.955 75.6565 346.694 75.1288 346.268 74.7539C345.842 74.379 345.286 74.1871 344.719 74.2199Z" fill="#3F3D56"/>
<path d="M346.995 76.223V86.6176C346.955 87.184 346.694 87.7118 346.268 88.0867C345.842 88.4617 345.286 88.6535 344.719 88.6207H336.533V74.2199H344.719C345.286 74.1872 345.842 74.379 346.268 74.7539C346.694 75.1288 346.955 75.6566 346.995 76.223Z" fill="#FF6584"/>
<path d="M98.3655 277.899C103.657 279.761 109.337 280.227 114.861 279.253C120.384 278.279 125.564 275.898 129.901 272.338C140.947 263.058 144.41 247.769 147.227 233.612C150.006 219.654 152.784 205.696 155.562 191.738L138.113 203.765C125.564 212.414 112.733 221.34 104.045 233.868C95.3567 246.397 91.5641 263.498 98.545 277.054" fill="#E6E6E6"/>
<path d="M99.8571 328.596C98.091 315.719 96.2751 302.676 97.5139 289.66C98.6141 278.101 102.137 266.811 109.309 257.554C113.116 252.65 117.748 248.448 122.998 245.137C124.367 244.272 125.627 246.443 124.264 247.305C115.181 253.051 108.155 261.537 104.2 271.538C99.8323 282.66 99.1308 294.783 99.8835 306.598C100.339 313.742 101.303 320.84 102.276 327.929C102.352 328.25 102.304 328.587 102.142 328.874C101.979 329.161 101.714 329.375 101.4 329.473C101.079 329.56 100.737 329.516 100.449 329.352C100.16 329.188 99.9473 328.916 99.8572 328.596L99.8571 328.596Z" fill="#F2F2F2"/>
<path d="M116.868 305.809C119.137 309.262 122.256 312.071 125.925 313.967C129.593 315.862 133.688 316.78 137.814 316.631C148.417 316.127 157.257 308.719 165.214 301.686L188.751 280.884L173.174 280.137C161.971 279.601 150.48 279.1 139.81 282.558C129.14 286.016 119.3 294.339 117.349 305.394" fill="#E6E6E6"/>
<path d="M94.8661 335.999C103.366 320.943 113.226 304.209 130.844 298.861C135.742 297.379 140.879 296.848 145.977 297.297C147.583 297.435 147.182 299.914 145.578 299.776C137.033 299.066 128.505 301.324 121.429 306.172C114.62 310.811 109.318 317.262 104.83 324.102C102.082 328.292 99.6197 332.66 97.1571 337.022C96.3701 338.416 94.0699 337.409 94.8661 335.999L94.8661 335.999Z" fill="#F2F2F2"/>
<path d="M81.246 351.847C81.5324 348.525 82.7239 345.345 84.6908 342.654C86.6576 339.963 89.3244 337.864 92.4007 336.585V327.881H106.985V336.859C109.91 338.201 112.427 340.295 114.28 342.928C116.133 345.561 117.255 348.638 117.532 351.847L120.962 391.753H77.8166L81.246 351.847Z" fill="#FF6584"/>
<path d="M577.229 161.306L572.891 159.477L569.914 137.706H530.28L527.054 159.388L523.173 161.331C522.987 161.424 522.838 161.577 522.75 161.765C522.662 161.954 522.64 162.166 522.688 162.368C522.736 162.571 522.85 162.751 523.013 162.88C523.176 163.009 523.378 163.079 523.585 163.079H576.872C577.084 163.079 577.291 163.005 577.455 162.871C577.62 162.736 577.733 162.548 577.775 162.339C577.817 162.13 577.786 161.913 577.686 161.725C577.587 161.537 577.425 161.389 577.229 161.306Z" fill="#E6E6E6"/>
<path d="M647.661 140.602H452.968C451.947 140.6 450.968 140.192 450.247 139.468C449.525 138.744 449.12 137.764 449.12 136.741V109.258H651.51V136.741C651.51 137.764 651.105 138.744 650.383 139.468C649.662 140.192 648.683 140.6 647.661 140.602Z" fill="#CCCCCC"/>
<path d="M651.713 122.247H448.942V4.65461C448.944 3.42054 449.434 2.23743 450.306 1.36482C451.177 0.492221 452.359 0.00138084 453.592 0H647.063C648.296 0.00138082 649.478 0.492222 650.35 1.36482C651.222 2.23743 651.712 3.42054 651.714 4.65461L651.713 122.247Z" fill="#3F3D56"/>
<path d="M639.603 113.712H461.053C460.102 113.711 459.191 113.333 458.519 112.66C457.847 111.988 457.469 111.075 457.468 110.124V12.1233C457.469 11.1719 457.847 10.2597 458.519 9.58695C459.191 8.91419 460.102 8.53576 461.053 8.53467H639.603C640.553 8.53576 641.464 8.91419 642.136 9.58695C642.808 10.2597 643.186 11.1719 643.188 12.1233V110.124C643.186 111.075 642.808 111.988 642.136 112.66C641.464 113.333 640.553 113.711 639.603 113.712Z" fill="white"/>
<path d="M592.575 148.292C593.728 147.226 595.1 146.426 596.595 145.949C598.09 145.471 599.672 145.327 601.228 145.528C602.785 145.728 604.278 146.268 605.604 147.109C606.93 147.949 608.055 149.071 608.901 150.394L633.052 146.096L639.241 160.15L605.049 165.741C602.735 167.016 600.033 167.396 597.457 166.811C594.88 166.225 592.608 164.714 591.07 162.563C589.533 160.412 588.837 157.771 589.114 155.141C589.391 152.511 590.623 150.074 592.575 148.292Z" fill="#FFB6B6"/>
<path d="M614.935 166.238L640.113 165.923L643.3 165.88L694.526 165.234C694.526 165.234 708.436 151.949 720.549 138.272L718.851 125.979C717.195 113.915 711.217 102.865 702.029 94.8837C684.681 106.488 674.62 129.457 674.62 129.457L642.859 137.061L639.681 137.822L619.946 142.543L614.935 166.238Z" fill="#00B866"/>
<path d="M743.824 241.793H696.826C696.826 243.808 645.451 245.444 645.451 245.444C644.318 246.299 643.285 247.279 642.373 248.366C639.63 251.64 638.131 255.779 638.14 260.052V262.974C638.142 267.816 640.064 272.459 643.485 275.883C646.905 279.307 651.544 281.231 656.381 281.233H743.824C748.66 281.229 753.297 279.304 756.717 275.88C760.137 272.457 762.06 267.815 762.064 262.974V260.052C762.058 255.211 760.134 250.571 756.715 247.148C753.295 243.725 748.66 241.799 743.824 241.793Z" fill="#E4E4E4"/>
<path d="M709.647 280.508H690.677V390.118H709.647V280.508Z" fill="#E4E4E4"/>
<path d="M636.685 389.451C636.685 391.502 665.432 390.244 700.892 390.244C736.352 390.244 765.099 391.502 765.099 389.451C765.099 387.399 736.352 371.128 700.892 371.128C665.432 371.128 636.685 387.399 636.685 389.451Z" fill="#E4E4E4"/>
<path d="M623.942 376.926L609.824 376.926L603.107 322.413L623.944 322.414L623.942 376.926Z" fill="#FFB6B6"/>
<path d="M627.543 390.626L582.019 390.624V390.048C582.019 385.344 583.886 380.832 587.209 377.506C590.532 374.18 595.039 372.311 599.738 372.311H599.739L627.543 372.312L627.543 390.626Z" fill="#2F2E41"/>
<path d="M582.214 376.926L568.096 376.926L561.379 322.413L582.216 322.414L582.214 376.926Z" fill="#FFB6B6"/>
<path d="M585.815 390.626L540.291 390.624V390.048C540.291 385.344 542.158 380.832 545.481 377.506C548.804 374.18 553.311 372.311 558.01 372.311H558.011L585.815 372.312L585.815 390.626Z" fill="#2F2E41"/>
<path d="M708.683 63.0893C722.24 63.0893 733.231 52.0875 733.231 38.516C733.231 24.9445 722.24 13.9427 708.683 13.9427C695.126 13.9427 684.135 24.9445 684.135 38.516C684.135 52.0875 695.126 63.0893 708.683 63.0893Z" fill="#FFB6B6"/>
<path d="M748.414 206.883C748.414 206.883 756.65 250.482 725.311 256.034C693.972 261.586 648.734 265.488 648.734 265.488L628.419 360.368L601.126 357.929C601.126 357.929 604.756 243.714 613.682 234.779C622.609 225.843 679.028 199.087 679.028 199.087L748.414 206.883Z" fill="#2F2E41"/>
<path d="M687.207 188.61L673.5 202.375C673.5 202.375 574.534 218.332 570.716 241.214C564.952 275.759 558.144 350.881 558.144 350.881L587.899 348.647L599.567 263.254L647.176 252.413L701.34 222.864L687.207 188.61Z" fill="#2F2E41"/>
<path d="M732.305 23.8476C729.882 19.2708 726.803 10.1494 721.912 8.45774C719.196 7.55618 716.389 6.95752 713.541 6.67264L705.228 9.87343L709.752 6.35079C708.871 6.29826 707.991 6.25531 707.111 6.22195L701.502 8.38154L704.371 6.14722C699.142 6.09349 693.744 6.6378 689.692 9.82453C686.238 12.5412 682.815 22.8326 682.262 27.1949C681.671 31.3681 681.878 35.6158 682.872 39.7115L684.293 41.0636C684.79 39.9231 685.163 38.7326 685.407 37.5125C685.916 35.2327 686.895 33.0842 688.279 31.2038C689.664 29.3234 691.425 27.7523 693.449 26.5908L693.527 26.5471C695.909 25.2049 698.8 25.2668 701.532 25.3652L714.508 25.8326C717.63 25.9451 720.992 26.1428 723.426 28.1031C724.972 29.5492 726.189 31.313 726.991 33.2735C728.2 35.717 730.564 44.9332 730.564 44.9332C730.564 44.9332 731.901 43.1935 732.542 44.4883C733.569 41.11 734.194 37.6219 734.403 34.0966C734.608 30.5557 733.884 27.0227 732.305 23.8476Z" fill="#2F2E41"/>
<path d="M818.163 49.3075C816.597 49.4107 815.073 49.8563 813.697 50.613C812.322 51.3697 811.129 52.4191 810.203 53.6872C809.277 54.9552 808.64 56.4112 808.336 57.9525C808.033 59.4937 808.071 61.0829 808.448 62.6079L788.707 77.1843L794.63 91.3532L822.218 70.3766C824.736 69.5736 826.871 67.8741 828.221 65.6001C829.57 63.3262 830.039 60.6358 829.539 58.0387C829.039 55.4417 827.605 53.1184 825.508 51.5092C823.412 49.9 820.798 49.1166 818.163 49.3075Z" fill="#FFB6B6"/>
<path d="M814.986 79.0653L765.499 134.083C765.499 134.083 741.833 126.499 723.531 118.277L715.309 92.997C713.399 87.1324 712.585 80.9661 712.905 74.8062C738.277 68.0477 767.788 93.1952 767.788 93.1952L804.831 64.1494L814.986 79.0653Z" fill="#00B866"/>
<path d="M699.514 210.947C690.685 207.894 681.556 204.737 671.709 203.552L671.286 203.501L671.402 203.091C681.596 167.262 679.052 144.343 674.056 109.916C672.994 102.49 674.359 94.919 677.948 88.3333C681.537 81.7477 687.157 76.5004 693.969 73.3747L694.03 73.3474L722.154 71.5584L722.218 71.5545L742.673 77.5765C745.615 78.4493 748.191 80.2636 750.004 82.7416C751.818 85.2197 752.771 88.2247 752.715 91.2962C752.494 102.618 752.964 115.259 753.461 128.642C754.577 158.665 755.731 189.711 749.182 209.855L749.148 209.96L749.06 210.029C743.039 214.938 735.496 217.59 727.731 217.529C718.55 217.529 709.181 214.289 699.514 210.947Z" fill="#00B866"/>
<path d="M903.692 393H1.30781C0.960955 393 0.628313 392.862 0.383053 392.617C0.137793 392.371 0 392.038 0 391.691C0 391.344 0.137793 391.011 0.383053 390.765C0.628313 390.52 0.960955 390.382 1.30781 390.382H903.692C904.039 390.382 904.372 390.52 904.617 390.765C904.862 391.011 905 391.344 905 391.691C905 392.038 904.862 392.371 904.617 392.617C904.372 392.862 904.039 393 903.692 393Z" fill="#CCCCCC"/>
</g>
<defs>
<clipPath id="clip0">
<rect width="905" height="393" fill="white"/>
</clipPath>
</defs>
</svg>
