<svg width="563" height="317" viewBox="0 0 563 317" fill="none" xmlns="http://www.w3.org/2000/svg">
<path d="M520.642 316.841L521.234 315.746C513.29 311.452 503.403 306.108 498.239 297.337C493.148 288.692 493.034 276.951 497.941 266.698C502.116 257.972 509.787 250.154 520.123 244.089C522.162 242.893 524.302 241.759 526.372 240.663C531.375 238.013 536.549 235.272 540.814 231.384C546.689 226.029 551.135 217.042 547.822 209.038C546.732 206.483 544.947 204.284 542.671 202.692C540.394 201.1 537.716 200.178 534.941 200.03L534.871 201.274C537.413 201.408 539.866 202.253 541.953 203.711C544.039 205.169 545.674 207.182 546.674 209.522C549.753 216.96 545.528 225.402 539.975 230.464C535.826 234.246 530.723 236.948 525.789 239.562C523.707 240.665 521.555 241.805 519.493 243.015C508.941 249.206 501.1 257.21 496.817 266.161C491.733 276.783 491.867 288.971 497.165 297.969C502.505 307.038 512.561 312.474 520.642 316.841Z" fill="#FF6584"/>
<path d="M527.045 206.593C521.025 206.593 516.144 204.224 516.144 201.301C516.144 198.378 521.025 196.009 527.045 196.009C533.066 196.009 537.946 198.378 537.946 201.301C537.946 204.224 533.066 206.593 527.045 206.593Z" fill="#FF6584"/>
<path d="M518.324 241.46C512.304 241.46 507.423 239.09 507.423 236.167C507.423 233.245 512.304 230.875 518.324 230.875C524.345 230.875 529.225 233.245 529.225 236.167C529.225 239.09 524.345 241.46 518.324 241.46Z" fill="#FF6584"/>
<path d="M538.258 247.063C532.237 247.063 527.357 244.694 527.357 241.771C527.357 238.848 532.237 236.479 538.258 236.479C544.278 236.479 549.159 238.848 549.159 241.771C549.159 244.694 544.278 247.063 538.258 247.063Z" fill="#FF6584"/>
<path d="M507.112 276.326C501.091 276.326 496.211 273.956 496.211 271.034C496.211 268.111 501.091 265.741 507.112 265.741C513.132 265.741 518.013 268.111 518.013 271.034C518.013 273.956 513.132 276.326 507.112 276.326Z" fill="#FF6584"/>
<path d="M485.309 276.326C479.289 276.326 474.408 273.956 474.408 271.034C474.408 268.111 479.289 265.741 485.309 265.741C491.33 265.741 496.211 268.111 496.211 271.034C496.211 273.956 491.33 276.326 485.309 276.326Z" fill="#FF6584"/>
<path d="M0 9.60657H350.577V175.879H0V9.60657Z" fill="#E6E6E6"/>
<path d="M10.0244 23.8647H340.552V162.591H10.0244V23.8647Z" fill="white"/>
<path d="M0.149414 0H350.727V14.8862H0.149414V0Z" fill="#00B866"/>
<path d="M339.659 9.64466C338.134 9.64466 336.898 8.40937 336.898 6.88556C336.898 5.36176 338.134 4.12646 339.659 4.12646C341.183 4.12646 342.419 5.36176 342.419 6.88556C342.419 8.40937 341.183 9.64466 339.659 9.64466Z" fill="white"/>
<path d="M329.181 9.64466C327.656 9.64466 326.421 8.40937 326.421 6.88556C326.421 5.36176 327.656 4.12646 329.181 4.12646C330.706 4.12646 331.942 5.36176 331.942 6.88556C331.942 8.40937 330.706 9.64466 329.181 9.64466Z" fill="white"/>
<path d="M318.703 9.64466C317.178 9.64466 315.942 8.40937 315.942 6.88556C315.942 5.36176 317.178 4.12646 318.703 4.12646C320.227 4.12646 321.463 5.36176 321.463 6.88556C321.463 8.40937 320.227 9.64466 318.703 9.64466Z" fill="white"/>
<path d="M192.716 56.7871C193.071 56.7871 193.411 56.9279 193.661 57.1786C193.912 57.4293 194.053 57.7693 194.053 58.1238C194.053 58.4783 193.912 58.8183 193.661 59.0689C193.411 59.3196 193.071 59.4605 192.716 59.4605H119.333C118.979 59.4605 118.639 59.3196 118.388 59.0689C118.137 58.8183 117.996 58.4783 117.996 58.1238C117.996 57.7693 118.137 57.4293 118.388 57.1786C118.639 56.9279 118.979 56.7871 119.333 56.7871H192.716Z" fill="#E6E6E6"/>
<path d="M192.716 64.8079C193.07 64.8087 193.409 64.9498 193.66 65.2004C193.91 65.451 194.05 65.7906 194.05 66.1446C194.05 66.4986 193.91 66.8382 193.66 67.0888C193.409 67.3393 193.07 67.4805 192.716 67.4813H155.253C154.898 67.4805 154.559 67.3393 154.309 67.0888C154.059 66.8382 153.918 66.4986 153.918 66.1446C153.918 65.7906 154.059 65.451 154.309 65.2004C154.559 64.9498 154.898 64.8087 155.253 64.8079H192.716Z" fill="#E6E6E6"/>
<path d="M194.562 103.63C194.917 103.63 195.257 103.771 195.508 104.021C195.759 104.272 195.9 104.612 195.9 104.967C195.9 105.321 195.759 105.661 195.508 105.912C195.257 106.162 194.917 106.303 194.562 106.303H56.9699C56.6152 106.303 56.2751 106.162 56.0243 105.912C55.7735 105.661 55.6326 105.321 55.6326 104.967C55.6326 104.612 55.7735 104.272 56.0243 104.021C56.2751 103.771 56.6152 103.63 56.9699 103.63H194.562Z" fill="#E6E6E6"/>
<path d="M194.562 111.651C194.917 111.651 195.256 111.793 195.506 112.043C195.756 112.294 195.897 112.633 195.897 112.987C195.897 113.341 195.756 113.681 195.506 113.932C195.256 114.182 194.917 114.323 194.562 114.324H92.8891C92.5349 114.323 92.1955 114.182 91.9454 113.932C91.6952 113.681 91.5547 113.341 91.5547 112.987C91.5547 112.633 91.6952 112.294 91.9454 112.043C92.1955 111.793 92.5349 111.651 92.8891 111.651H194.562Z" fill="#E6E6E6"/>
<path d="M194.562 119.49C194.917 119.491 195.256 119.632 195.506 119.883C195.756 120.133 195.897 120.473 195.897 120.827C195.897 121.181 195.756 121.52 195.506 121.771C195.256 122.021 194.917 122.163 194.562 122.163H56.9699C56.6157 122.163 56.2763 122.021 56.0261 121.771C55.7759 121.52 55.6354 121.181 55.6354 120.827C55.6354 120.473 55.7759 120.133 56.0261 119.883C56.2763 119.632 56.6157 119.491 56.9699 119.49H194.562Z" fill="#E6E6E6"/>
<path d="M194.562 127.511C194.917 127.512 195.256 127.653 195.506 127.903C195.756 128.154 195.897 128.494 195.897 128.848C195.897 129.202 195.756 129.541 195.506 129.792C195.256 130.042 194.917 130.183 194.562 130.184H92.8891C92.5349 130.183 92.1955 130.042 91.9454 129.792C91.6952 129.541 91.5547 129.202 91.5547 128.848C91.5547 128.494 91.6952 128.154 91.9454 127.903C92.1955 127.653 92.5349 127.512 92.8891 127.511H194.562Z" fill="#E6E6E6"/>
<path d="M266.497 109.055C260.065 109.055 254.852 103.844 254.852 97.4154C254.852 90.9872 260.065 85.7761 266.497 85.7761C272.928 85.7761 278.142 90.9872 278.142 97.4154C278.142 103.844 272.928 109.055 266.497 109.055Z" fill="#FFB6B6"/>
<path d="M270.184 88.1039C270.184 88.1039 264.75 89.5588 261.936 90.1408C259.122 90.7227 259.413 89.0738 259.413 89.0738C259.413 89.0738 255.725 89.5588 255.919 89.1708C256.113 88.7828 254.366 86.746 256.404 84.4181C258.442 82.0902 257.86 80.3443 257.86 80.3443H259.607L260.092 79.6654H262.809C262.809 79.6654 265.813 77.0324 271.151 77.8084C276.488 78.5843 282.8 80.6353 283.382 83.8361C283.461 84.2703 283.565 84.7526 283.686 85.2621C285.145 91.4206 282.044 97.1828 278.828 102.635C278.037 103.974 274.214 106.896 274.312 104.891C274.41 102.887 277.754 98.3853 275.425 98.0943C273.096 97.8033 269.117 91.8866 270.184 88.1039Z" fill="#2F2E41"/>
<path d="M273.103 135.043C275.351 134.863 277.58 134.497 279.767 133.949L279.645 131.627L278.625 113.172L278.616 113.03H258.103L254.884 130.023L254.45 132.316C255.299 132.646 256.158 132.958 257.036 133.231C257.046 133.231 257.046 133.241 257.055 133.241C258.273 133.618 259.509 133.949 260.756 134.222C262.413 134.579 264.09 134.838 265.778 134.996C267.082 135.125 268.393 135.188 269.704 135.185C270.837 135.185 271.979 135.137 273.103 135.043Z" fill="#00B866"/>
<path d="M286.291 131.76C287.14 131.392 287.962 130.995 288.773 130.58L289.123 130.401C289.359 130.278 289.604 130.146 289.84 130.014C290.161 129.835 290.473 129.656 290.775 129.476C291.067 129.306 291.369 129.127 291.662 128.948C291.681 128.938 291.69 128.929 291.709 128.929C292.729 128.278 293.729 127.608 294.692 126.882C294.853 126.759 295.013 126.636 295.174 126.514L295.343 123.796L295.098 123.645L278.625 113.172L278.399 113.03L278.38 113.021L276.058 113.03V121.673C274.746 123.57 273.858 127.542 273.311 132.741C273.235 133.486 273.169 134.251 273.103 135.043C275.351 134.863 277.58 134.497 279.767 133.949C280.003 133.901 280.23 133.845 280.466 133.779C281.842 133.419 283.197 132.984 284.525 132.477C284.931 132.326 285.328 132.165 285.724 132.005L285.762 131.986C285.932 131.911 286.121 131.835 286.291 131.76Z" fill="#2F2E41"/>
<path d="M289.84 130.014C290.161 129.835 290.473 129.656 290.775 129.476C291.067 129.306 291.369 129.127 291.662 128.948C291.681 128.938 291.69 128.929 291.709 128.929C292.729 128.278 293.729 127.608 294.692 126.882C294.853 126.759 295.013 126.636 295.174 126.514C295.249 126.448 295.325 126.391 295.41 126.325C296.014 125.863 296.599 125.381 297.166 124.872C297.194 124.853 297.213 124.825 297.241 124.806C296.669 124.366 296.028 124.025 295.343 123.796L294.673 123.994L289.897 125.428L289.868 127.363L289.84 130.014Z" fill="#2F2E41"/>
<path d="M249.616 130.042C249.9 130.193 250.183 130.344 250.466 130.486C250.532 130.524 250.588 130.552 250.645 130.58C251.023 130.769 251.391 130.958 251.768 131.137C251.778 131.146 251.797 131.146 251.797 131.156C251.816 131.165 251.844 131.175 251.863 131.184C252.712 131.59 253.571 131.967 254.45 132.316C255.299 132.647 256.158 132.958 257.036 133.231C257.046 133.231 257.046 133.241 257.055 133.241C258.273 133.618 259.509 133.949 260.756 134.222C260.77 133.447 260.668 132.674 260.453 131.929L260.444 131.797L259.632 118.663L260.718 113.03L257.602 112.568L240.469 121.786C240.469 121.786 242.357 123.673 250.107 127.693C250.792 128.048 249.786 129.231 249.616 130.042Z" fill="#2F2E41"/>
<path d="M265.985 132.731C267.212 132.845 268.458 132.901 269.704 132.901C270.913 132.901 272.112 132.854 273.311 132.741C273.235 133.486 273.169 134.251 273.103 135.043C271.979 135.137 270.837 135.185 269.704 135.185C268.393 135.188 267.082 135.125 265.777 134.996C264.09 134.838 262.413 134.579 260.756 134.222C260.77 133.447 260.668 132.674 260.453 131.929L260.444 131.797C262.266 132.241 264.118 132.553 265.985 132.731ZM230.312 79.7803C232.306 74.0529 235.527 68.8294 239.749 64.474C243.971 60.1186 249.093 56.7361 254.757 54.5623C260.422 52.3886 266.492 51.476 272.546 51.8881C278.599 52.3002 284.49 54.0271 289.807 56.9485C295.124 59.8698 299.739 63.9153 303.332 68.8027C306.924 73.6901 309.406 79.3019 310.606 85.2467C311.805 91.1915 311.693 97.3262 310.276 103.223C308.86 109.12 306.173 114.637 302.405 119.39C302.027 119.862 301.64 120.333 301.243 120.786C301.206 120.824 301.187 120.852 301.159 120.881C300.184 122.004 299.147 123.072 298.053 124.079C297.788 124.325 297.515 124.57 297.241 124.806C297.213 124.825 297.194 124.853 297.166 124.872C296.599 125.381 296.014 125.862 295.41 126.325C295.325 126.391 295.249 126.447 295.174 126.514C295.013 126.636 294.852 126.759 294.692 126.882C293.729 127.608 292.729 128.278 291.709 128.929C291.69 128.929 291.681 128.938 291.662 128.948C291.369 129.127 291.067 129.306 290.775 129.476C290.472 129.655 290.161 129.835 289.84 130.014C289.604 130.146 289.359 130.278 289.123 130.401L288.773 130.58C287.962 130.995 287.14 131.392 286.291 131.76C286.121 131.835 285.932 131.91 285.762 131.986L285.724 132.005C285.328 132.165 284.931 132.326 284.525 132.477C283.197 132.984 281.842 133.419 280.466 133.779C280.23 133.845 280.003 133.901 279.767 133.949C277.58 134.497 275.351 134.863 273.103 135.043C271.979 135.137 270.837 135.185 269.704 135.185C268.393 135.188 267.082 135.125 265.778 134.996C264.09 134.838 262.413 134.579 260.756 134.222C259.509 133.949 258.273 133.618 257.055 133.241C257.046 133.241 257.046 133.231 257.036 133.231C256.158 132.958 255.299 132.646 254.45 132.316C253.571 131.967 252.712 131.59 251.863 131.184C251.844 131.175 251.816 131.165 251.797 131.156C251.797 131.146 251.778 131.146 251.768 131.137C251.391 130.958 251.023 130.769 250.645 130.58C250.588 130.552 250.532 130.524 250.466 130.486C250.183 130.344 249.9 130.193 249.616 130.042C249.597 130.033 249.588 130.023 249.569 130.014C248.823 129.599 248.087 129.165 247.36 128.703C247.162 128.58 246.963 128.457 246.765 128.316C246.473 128.136 246.19 127.938 245.916 127.74C245.547 127.485 245.18 127.221 244.821 126.948C244.701 126.871 244.588 126.786 244.481 126.693C243.603 126.032 242.753 125.334 241.942 124.598C235.785 119.115 231.394 111.93 229.324 103.953C227.254 95.975 227.597 87.5628 230.312 79.7803L230.312 79.7803ZM242.649 122.164C243.671 123.125 244.743 124.032 245.859 124.881C246.104 125.07 246.36 125.259 246.614 125.428C246.86 125.617 247.105 125.796 247.36 125.966C247.577 126.117 247.794 126.268 248.021 126.41C248.04 126.429 248.068 126.438 248.087 126.457C248.248 126.57 248.417 126.674 248.578 126.778C249.078 127.089 249.597 127.4 250.107 127.693C250.23 127.759 250.343 127.834 250.466 127.9C250.532 127.938 250.598 127.976 250.673 128.014C250.956 128.174 251.24 128.316 251.523 128.467C251.561 128.495 251.608 128.504 251.646 128.533C251.66 128.535 251.673 128.542 251.683 128.552C251.882 128.655 252.08 128.75 252.278 128.844C252.448 128.929 252.608 129.014 252.779 129.089C253.468 129.42 254.176 129.731 254.884 130.023C255.629 130.325 256.384 130.599 257.149 130.854C257.338 130.92 257.536 130.995 257.735 131.052C258.632 131.335 259.528 131.59 260.444 131.797C262.266 132.241 264.118 132.553 265.985 132.731C267.212 132.845 268.458 132.901 269.704 132.901C270.913 132.901 272.112 132.854 273.311 132.741C275.449 132.545 277.568 132.173 279.645 131.627C279.72 131.609 279.805 131.59 279.881 131.571C281.584 131.127 283.254 130.559 284.875 129.872C284.959 129.835 285.054 129.806 285.129 129.769C285.224 129.731 285.309 129.703 285.384 129.665C285.479 129.627 285.564 129.589 285.649 129.552C286.357 129.24 287.046 128.901 287.735 128.552L288.056 128.382C288.67 128.061 289.274 127.731 289.868 127.363C290.076 127.249 290.293 127.117 290.501 126.985C290.737 126.844 290.973 126.693 291.2 126.542C291.256 126.504 291.312 126.466 291.369 126.429C291.898 126.07 292.436 125.711 292.946 125.325C293.304 125.06 293.654 124.806 294.003 124.532C294.23 124.362 294.456 124.183 294.673 123.994C294.815 123.89 294.956 123.768 295.098 123.645C295.287 123.485 295.476 123.324 295.664 123.155C295.957 122.919 296.231 122.654 296.495 122.409C297.558 121.43 298.564 120.39 299.507 119.295C299.827 118.937 300.13 118.578 300.422 118.201C300.49 118.127 300.553 118.048 300.611 117.965C305.364 111.969 308.267 104.719 308.968 97.1013C309.668 89.4835 308.136 81.8265 304.557 75.0645C300.977 68.3025 295.507 62.7278 288.812 59.0205C282.117 55.3132 274.487 53.6336 266.853 54.1866C259.22 54.7396 251.912 57.5013 245.822 62.1347C239.732 66.7681 235.122 73.073 232.556 80.2802C229.99 87.4874 229.578 95.2853 231.37 102.723C233.162 110.16 237.082 116.915 242.649 122.164L242.649 122.164Z" fill="#3F3D56"/>
<path d="M461.192 309.25L453.555 309.25L449.922 279.808L461.194 279.808L461.192 309.25Z" fill="#FFB6B6"/>
<path d="M463.14 306.758L448.1 306.757H448.1C445.558 306.757 443.12 307.767 441.323 309.563C439.525 311.36 438.515 313.796 438.515 316.337V316.648L463.14 316.649L463.14 306.758Z" fill="#2F2E41"/>
<path d="M432.538 309.25L424.901 309.25L421.268 279.808L432.539 279.808L432.538 309.25Z" fill="#FFB6B6"/>
<path d="M434.486 306.758L419.446 306.757H419.445C416.904 306.757 414.466 307.767 412.668 309.563C410.871 311.36 409.861 313.796 409.861 316.337V316.648L434.485 316.649L434.486 306.758Z" fill="#2F2E41"/>
<path d="M484.365 192.91C483.74 192.241 483.269 191.443 482.986 190.573C482.703 189.703 482.614 188.781 482.726 187.872C482.837 186.964 483.147 186.091 483.633 185.315C484.119 184.539 484.769 183.879 485.538 183.382L480.232 161.774L491.128 165.655L494.496 185.579C495.247 186.925 495.477 188.499 495.144 190.004C494.811 191.509 493.937 192.839 492.688 193.742C491.44 194.646 489.902 195.06 488.368 194.907C486.834 194.754 485.41 194.043 484.365 192.91Z" fill="#FFB6B6"/>
<path d="M403.297 191.042C403.922 190.373 404.393 189.576 404.676 188.705C404.959 187.835 405.048 186.913 404.936 186.004C404.824 185.096 404.515 184.223 404.029 183.447C403.543 182.671 402.893 182.011 402.124 181.514L407.43 159.906L396.534 163.787L393.165 183.711C392.415 185.057 392.184 186.632 392.517 188.136C392.851 189.641 393.725 190.971 394.973 191.875C396.222 192.778 397.759 193.193 399.293 193.039C400.828 192.886 402.252 192.175 403.297 191.042Z" fill="#FFB6B6"/>
<path d="M474.317 177.764L463.731 301.704L448.243 300.293L442.044 204.504L436.527 242.432L435.422 302.68L421.406 301.746L413.623 236.932L415.532 174.162L468.74 168.776L474.317 177.764Z" fill="#2F2E41"/>
<path d="M445.198 64.9809C436.327 64.9809 429.136 57.7931 429.136 48.9264C429.136 40.0597 436.327 32.8719 445.198 32.8719C454.069 32.8719 461.261 40.0597 461.261 48.9264C461.261 57.7931 454.069 64.9809 445.198 64.9809Z" fill="#FFB6B6"/>
<path d="M450.285 36.0828C450.285 36.0828 442.789 38.0896 438.907 38.8923C435.025 39.695 435.427 37.4206 435.427 37.4206C435.427 37.4206 430.34 38.0896 430.608 37.5544C430.876 37.0193 428.466 34.2097 431.277 30.9988C434.088 27.7879 433.285 25.3797 433.285 25.3797H435.695L436.364 24.4432H440.112C440.112 24.4432 444.255 20.8115 451.617 21.8818C458.979 22.9521 467.686 25.7811 468.489 30.1961C468.598 30.7949 468.741 31.4602 468.908 32.1629C470.921 40.6576 466.643 48.6057 462.207 56.1254C461.117 57.9735 455.843 62.0034 455.978 59.2385C456.113 56.4736 460.725 50.2642 457.513 49.8629C454.3 49.4615 448.812 41.3005 450.285 36.0828Z" fill="#2F2E41"/>
<path d="M461.913 70.4651H433.625L413.623 176.045C413.623 176.045 431.061 177.535 441.028 181.271C450.994 185.006 467.563 172.737 467.563 172.737L461.913 70.4651Z" fill="#00B866"/>
<path d="M458.381 82.388V70.4651L461.584 70.4456L484.985 85.3167L479.908 166.793C479.908 166.793 473.898 193.975 464.782 193.693C455.666 193.411 448.638 96.5095 458.381 82.388Z" fill="#2F2E41"/>
<path d="M477.469 87.5674L484.985 85.3167C484.985 85.3167 490.55 86.9448 490.55 92.5483C490.55 98.1518 495.344 177.764 495.344 177.764L480.114 179.109L476.846 138.622L477.469 87.5674Z" fill="#2F2E41"/>
<path d="M435.733 78.2282L437.231 70.4651L432.93 69.8229L417.357 76.0491C417.357 76.0491 403.341 178.469 409.57 181.582C415.799 184.695 420.005 182.283 420.005 182.283C420.005 182.283 440.494 106.744 436.868 96.533L435.733 78.2282Z" fill="#2F2E41"/>
<path d="M428.258 77.6056L425.6 76.4493C425.6 76.4493 417.799 72.5856 413.373 80.3878C408.947 88.19 393.374 175.356 393.374 175.356L406.188 177.764L415.768 146.394L428.258 77.6056Z" fill="#2F2E41"/>
<path d="M325.044 317H562.377C562.542 317 562.701 316.934 562.818 316.818C562.934 316.701 563 316.542 563 316.377C563 316.212 562.934 316.054 562.818 315.937C562.701 315.82 562.542 315.755 562.377 315.755H325.044C324.879 315.755 324.721 315.82 324.604 315.937C324.487 316.054 324.421 316.212 324.421 316.377C324.421 316.542 324.487 316.701 324.604 316.818C324.721 316.934 324.879 317 325.044 317Z" fill="#FF6584"/>
</svg>
