<svg width="630" height="469" viewBox="0 0 630 469" fill="none" xmlns="http://www.w3.org/2000/svg">
<g clip-path="url(#clip0)">
<path d="M254.533 270.594C236.253 338.36 197.554 397.669 127.266 397.669C56.9791 397.669 0 340.775 0 270.594C0 200.412 74.0831 189.405 127.266 143.519C235.266 50.3391 311.302 60.1469 254.533 270.594Z" fill="#F2F2F2"/>
<path d="M291.818 103.211C314.257 103.211 332.448 85.048 332.448 62.6426C332.448 40.2372 314.257 22.0741 291.818 22.0741C269.379 22.0741 251.188 40.2372 251.188 62.6426C251.188 85.048 269.379 103.211 291.818 103.211Z" fill="#FF6584"/>
<path d="M365.31 5.96594H343.8V27.4434H365.31V5.96594Z" fill="#FF6584"/>
<path d="M128.819 411.727C184.916 411.727 230.393 405.549 230.393 397.929C230.393 390.309 184.916 384.132 128.819 384.132C72.7207 384.132 27.2444 390.309 27.2444 397.929C27.2444 405.549 72.7207 411.727 128.819 411.727Z" fill="#3F3D56"/>
<path d="M294.805 76.9608H157.382V146.762H294.805V76.9608Z" fill="#00B866"/>
<path d="M123.324 377.645C149.393 377.645 170.526 356.544 170.526 330.514C170.526 304.484 149.393 283.383 123.324 283.383C97.2553 283.383 76.1222 304.484 76.1222 330.514C76.1222 356.544 97.2553 377.645 123.324 377.645Z" fill="#2F2E41"/>
<path d="M116.154 367.503H101.814V393.157H116.154V367.503Z" fill="#2F2E41"/>
<path d="M144.834 367.503H130.494V393.157H144.834V367.503Z" fill="#2F2E41"/>
<path d="M113.764 397.929C120.364 397.929 125.714 395.926 125.714 393.455C125.714 390.984 120.364 388.98 113.764 388.98C107.165 388.98 101.814 390.984 101.814 393.455C101.814 395.926 107.165 397.929 113.764 397.929Z" fill="#2F2E41"/>
<path d="M142.444 397.333C149.044 397.333 154.394 395.329 154.394 392.858C154.394 390.387 149.044 388.384 142.444 388.384C135.844 388.384 130.494 390.387 130.494 392.858C130.494 395.329 135.844 397.333 142.444 397.333Z" fill="#2F2E41"/>
<path d="M124.519 334.69C133.429 334.69 140.652 327.478 140.652 318.582C140.652 309.686 133.429 302.474 124.519 302.474C115.61 302.474 108.387 309.686 108.387 318.582C108.387 327.478 115.61 334.69 124.519 334.69Z" fill="white"/>
<path d="M124.519 323.951C127.489 323.951 129.897 321.547 129.897 318.582C129.897 315.617 127.489 313.213 124.519 313.213C121.549 313.213 119.142 315.617 119.142 318.582C119.142 321.547 121.549 323.951 124.519 323.951Z" fill="#3F3D56"/>
<path d="M77.5367 286.683C73.7253 269.64 85.9087 252.419 104.749 248.218C123.589 244.017 141.952 254.429 145.763 271.472C149.575 288.515 137.089 294.801 118.248 299.002C99.4081 303.202 81.348 303.727 77.5367 286.683Z" fill="#00B866"/>
<path d="M107.192 242.218C133.261 242.218 154.394 221.116 154.394 195.087C154.394 169.057 133.261 147.956 107.192 147.956C81.123 147.956 59.9899 169.057 59.9899 195.087C59.9899 221.116 81.123 242.218 107.192 242.218Z" fill="#2F2E41"/>
<path d="M100.022 232.076H85.6821V257.729H100.022V232.076Z" fill="#2F2E41"/>
<path d="M128.702 232.076H114.362V257.729H128.702V232.076Z" fill="#2F2E41"/>
<path d="M97.632 262.502C104.232 262.502 109.582 260.499 109.582 258.028C109.582 255.556 104.232 253.553 97.632 253.553C91.0323 253.553 85.6821 255.556 85.6821 258.028C85.6821 260.499 91.0323 262.502 97.632 262.502Z" fill="#2F2E41"/>
<path d="M126.312 261.905C132.912 261.905 138.262 259.902 138.262 257.431C138.262 254.96 132.912 252.957 126.312 252.957C119.712 252.957 114.362 254.96 114.362 257.431C114.362 259.902 119.712 261.905 126.312 261.905Z" fill="#2F2E41"/>
<path d="M108.387 199.263C117.297 199.263 124.519 192.051 124.519 183.155C124.519 174.259 117.297 167.047 108.387 167.047C99.4773 167.047 92.2546 174.259 92.2546 183.155C92.2546 192.051 99.4773 199.263 108.387 199.263Z" fill="white"/>
<path d="M108.387 188.524C111.357 188.524 113.764 186.12 113.764 183.155C113.764 180.189 111.357 177.786 108.387 177.786C105.417 177.786 103.009 180.189 103.009 183.155C103.009 186.12 105.417 188.524 108.387 188.524Z" fill="#3F3D56"/>
<path d="M61.4043 151.256C57.593 134.213 69.7763 116.991 88.6166 112.791C107.457 108.59 125.82 119.001 129.631 136.045C133.442 153.088 120.956 159.374 102.116 163.574C83.2757 167.775 65.2157 168.299 61.4043 151.256Z" fill="#00B866"/>
<path d="M157.742 162.137C162.395 149.98 163.069 138.942 159.247 137.484C155.425 136.025 148.554 144.698 143.9 156.855C139.246 169.012 138.572 180.05 142.395 181.508C146.217 182.967 153.088 174.294 157.742 162.137Z" fill="#2F2E41"/>
<path d="M75.3509 183.316C77.1044 179.625 68.9787 172.111 57.2017 166.533C45.4246 160.956 34.456 159.428 32.7024 163.119C30.9489 166.811 39.0746 174.325 50.8516 179.902C62.6287 185.479 73.5973 187.008 75.3509 183.316Z" fill="#2F2E41"/>
<path d="M84.0064 212.09C84.0064 216.703 95.9017 225.811 109.101 225.811C122.301 225.811 134.677 212.825 134.677 208.212C134.677 203.599 122.301 209.107 109.101 209.107C95.9017 209.107 84.0064 207.477 84.0064 212.09Z" fill="white"/>
<path d="M307.95 66.8187H170.526V136.62H307.95V66.8187Z" stroke="#3F3D56" stroke-width="2" stroke-miterlimit="10"/>
<path d="M372.48 0.596619H350.97V22.0741H372.48V0.596619Z" stroke="#3F3D56" stroke-width="2" stroke-miterlimit="10"/>
<path d="M630 322.339C630 371.157 600.935 388.202 565.081 388.202C529.227 388.202 500.162 371.157 500.162 322.339C500.162 273.521 565.081 211.417 565.081 211.417C565.081 211.417 630 273.521 630 322.339Z" fill="#F2F2F2"/>
<path d="M562.716 380.735L563.381 339.878L591.051 289.333L563.485 333.469L563.784 315.098L582.854 278.53L563.863 310.237V310.237L564.401 277.197L584.821 248.084L564.485 272.001L564.821 211.417L562.711 291.619L562.884 288.311L542.122 256.579L562.551 294.662L560.616 331.563L560.559 330.583L536.624 297.19L560.486 334.043L560.244 338.658L560.201 338.727L560.221 339.106L555.313 432.726H561.871L562.657 384.37L586.461 347.607L562.716 380.735Z" fill="#3F3D56"/>
<path d="M558.102 439.402C570.568 439.402 580.675 436.412 580.675 432.724C580.675 429.036 570.568 426.046 558.102 426.046C545.635 426.046 535.529 429.036 535.529 432.724C535.529 436.412 545.635 439.402 558.102 439.402Z" fill="#3F3D56"/>
<path d="M456.843 469C512.941 469 558.417 462.823 558.417 455.202C558.417 447.582 512.941 441.405 456.843 441.405C400.745 441.405 355.269 447.582 355.269 455.202C355.269 462.823 400.745 469 456.843 469Z" fill="#3F3D56"/>
<path d="M458.038 431.637C484.107 431.637 505.24 410.536 505.24 384.506C505.24 358.476 484.107 337.375 458.038 337.375C431.969 337.375 410.836 358.476 410.836 384.506C410.836 410.536 431.969 431.637 458.038 431.637Z" fill="#2F2E41"/>
<path d="M465.208 447.148H479.548V421.495H465.208V447.148Z" fill="#2F2E41"/>
<path d="M436.528 447.148H450.868V421.495H436.528V447.148Z" fill="#2F2E41"/>
<path d="M442.952 453.708C448.667 450.413 452.297 446.007 451.06 443.867C449.822 441.727 444.186 442.663 438.47 445.958C432.755 449.253 429.125 453.659 430.362 455.799C431.599 457.939 437.236 457.003 442.952 453.708Z" fill="#2F2E41"/>
<path d="M471.034 453.708C476.749 450.413 480.38 446.007 479.142 443.867C477.905 441.727 472.268 442.663 466.553 445.958C460.837 449.253 457.207 453.659 458.444 455.799C459.682 457.939 465.318 457.003 471.034 453.708Z" fill="#2F2E41"/>
<path d="M456.843 388.682C465.753 388.682 472.976 381.47 472.976 372.574C472.976 363.678 465.753 356.466 456.843 356.466C447.934 356.466 440.711 363.678 440.711 372.574C440.711 381.47 447.934 388.682 456.843 388.682Z" fill="white"/>
<path d="M451.349 371.082C454.319 371.082 456.727 368.679 456.727 365.713C456.727 362.748 454.319 360.344 451.349 360.344C448.379 360.344 445.972 362.748 445.972 365.713C445.972 368.679 448.379 371.082 451.349 371.082Z" fill="#3F3D56"/>
<path d="M503.826 340.675C507.637 323.632 495.454 306.41 476.614 302.21C457.773 298.009 439.41 308.421 435.599 325.464C431.788 342.507 444.274 348.793 463.114 352.994C481.955 357.194 500.015 357.719 503.826 340.675Z" fill="#FF6584"/>
<path d="M438.38 377.577C439.99 373.821 431.581 366.624 419.598 361.503C407.615 356.382 396.595 355.276 394.985 359.032C393.375 362.788 401.784 369.985 413.767 375.106C425.75 380.227 436.77 381.333 438.38 377.577Z" fill="#2F2E41"/>
<path d="M526.809 409.197C528.419 405.44 520.01 398.244 508.027 393.123C496.044 388.002 485.025 386.895 483.415 390.651C481.804 394.408 490.213 401.604 502.196 406.725C514.18 411.846 525.199 412.953 526.809 409.197Z" fill="#2F2E41"/>
<path d="M399.964 340.06H378.455V361.537H399.964V340.06Z" fill="#FF6584"/>
<path d="M377.26 301.877H355.75V323.355H377.26V301.877Z" stroke="#3F3D56" stroke-width="2" stroke-miterlimit="10"/>
<path d="M467.481 405.088C467.481 407.936 466.348 410.668 464.331 412.682C462.314 414.696 459.579 415.827 456.726 415.827C453.874 415.827 451.139 414.696 449.122 412.682C447.105 410.668 445.972 407.936 445.972 405.088C445.972 399.158 450.787 397.929 456.726 397.929C462.666 397.929 467.481 399.158 467.481 405.088Z" fill="white"/>
</g>
<defs>
<clipPath id="clip0">
<rect width="630" height="469" fill="white"/>
</clipPath>
</defs>
</svg>
